<svg width="70" height="70" viewBox="0 0 70 70" fill="none" xmlns="http://www.w3.org/2000/svg">
<g clip-path="url(#clip0_217_3224)">
<rect width="70" height="70" rx="35" fill="white"/>
<rect y="-1" width="70" height="71" fill="url(#paint0_linear_217_3224)"/>
<g opacity="0.8">
<path d="M64.99 -0.998047H63.0371C64.7155 0.769076 67.1549 2.09153 69.9807 2.76622V1.57313C68.0351 1.04122 66.3153 0.155208 64.99 -0.998047Z" fill="#794BC1" style="mix-blend-mode:color-dodge"/>
<path d="M62.1337 -0.998047H60.3516C61.3705 0.328775 62.7465 1.49681 64.3994 2.43815C66.0524 3.37948 67.9493 4.07531 69.98 4.48519V3.33575C66.7322 2.605 63.9514 1.06907 62.1337 -0.998047Z" fill="#794BC1" style="mix-blend-mode:color-dodge"/>
<path d="M59.4632 -0.998047H57.7852C58.9398 0.778516 60.635 2.34612 62.7456 3.58908C64.8563 4.83203 67.3285 5.71861 69.9798 6.18338V5.06719C67.7359 4.63755 65.6416 3.87619 63.8307 2.8318C62.0198 1.78741 60.5323 0.482985 59.4632 -0.998047Z" fill="#794BC1" style="mix-blend-mode:color-dodge"/>
<path d="M56.8938 -0.998047H55.291C56.5471 1.22855 58.5422 3.2006 61.1024 4.74616C63.6626 6.29171 66.7102 7.36385 69.9795 7.86909V6.782C67.1081 6.30287 64.4311 5.35056 62.16 4.00031C59.889 2.65006 58.0861 0.938873 56.8938 -0.998047Z" fill="#794BC1" style="mix-blend-mode:color-dodge"/>
<path d="M54.3771 -0.998047H52.8438C54.1797 1.67726 56.4625 4.05649 59.4672 5.90541C62.4719 7.75433 66.095 9.0092 69.9799 9.54648V8.48642C66.4823 7.96959 63.2212 6.83049 60.4952 5.17347C57.7693 3.51644 55.6657 1.39447 54.3771 -0.998047Z" fill="#794BC1" style="mix-blend-mode:color-dodge"/>
<path d="M51.9206 -0.998047H50.4277C51.8314 2.12259 54.3942 4.90874 57.8397 7.05996C61.2852 9.21119 65.4827 10.6459 69.9796 11.2093V10.1701C65.8634 9.62268 62.023 8.30052 58.8504 6.3385C55.6778 4.37648 53.2865 1.84484 51.9206 -0.998047Z" fill="#794BC1" style="mix-blend-mode:color-dodge"/>
<path d="M49.4837 -0.998047H48.0371C49.4938 2.56999 52.329 5.76806 56.2138 8.22499C60.0986 10.6819 64.8736 12.2969 69.9845 12.8826V11.8703C65.2445 11.2985 60.8184 9.79276 57.199 7.52081C53.5795 5.24885 50.9086 2.29981 49.4837 -0.998047Z" fill="#794BC1" style="mix-blend-mode:color-dodge"/>
<path d="M47.0681 -0.998047H45.6562C47.1586 3.01475 50.2616 6.62427 54.5833 9.38603C58.9049 12.1478 64.2565 13.9412 69.9789 14.5454V13.5581C64.6202 12.964 59.6119 11.2762 55.5502 8.69561C51.4884 6.11502 48.5443 2.75031 47.0681 -0.998047Z" fill="#794BC1" style="mix-blend-mode:color-dodge"/>
<path d="M44.6663 -0.998047H43.2949C44.838 3.45704 48.2057 7.47718 52.9625 10.5427C57.7194 13.6082 63.6467 15.5781 69.9784 16.1979V15.2313C64.0022 14.6203 58.4109 12.7536 53.9072 9.86596C49.4035 6.97832 46.1884 3.19861 44.6663 -0.998047Z" fill="#794BC1" style="mix-blend-mode:color-dodge"/>
<path d="M42.2798 -0.998047H40.9316C42.3567 3.50013 45.5301 7.61518 50.0827 10.8684C55.4371 14.7348 62.4437 17.1972 69.9788 17.8607V16.9129C63.3841 16.2868 57.2079 14.2404 52.2635 11.0433C47.3192 7.84609 43.8385 3.64806 42.2798 -0.998047Z" fill="#794BC1" style="mix-blend-mode:color-dodge"/>
<path d="M39.8947 -0.998047H38.5898C40.0477 3.94527 43.479 8.47624 48.4642 12.0408C54.2483 16.2151 61.8351 18.8536 69.9805 19.5236V18.6028C62.7617 17.9689 55.9934 15.7444 50.6056 12.235C45.2178 8.72563 41.4751 4.10356 39.8918 -0.995968L39.8947 -0.998047Z" fill="#794BC1" style="mix-blend-mode:color-dodge"/>
<path d="M37.5249 -0.998047H36.252C37.746 4.38436 41.4373 9.32515 46.8553 13.1944C53.0693 17.6819 61.2403 20.4997 70.0005 21.176V20.2739C61.5671 19.6046 53.7062 16.8827 47.7233 12.5604C42.545 8.85811 38.9982 4.14267 37.5249 -0.998047Z" fill="#794BC1" style="mix-blend-mode:color-dodge"/>
<path d="M35.1601 -0.998047H33.9219C35.4406 4.82427 39.3832 10.1783 45.2283 14.3563C51.8664 19.1523 60.6131 22.147 69.9792 22.8306V21.9492C60.9369 21.2692 52.4982 18.3685 46.0876 13.7369C40.4715 9.72324 36.6643 4.58951 35.1601 -0.998047Z" fill="#794BC1" style="mix-blend-mode:color-dodge"/>
<path d="M32.8031 -0.998047H31.5938C33.1364 5.26481 37.3326 11.0328 43.609 15.5182C50.6754 20.6243 60.0036 23.7954 69.98 24.483V23.6246C60.3209 22.9392 51.295 19.86 44.4509 14.9154C38.3981 10.5896 34.3334 5.03635 32.8031 -0.998047Z" fill="#794BC1" style="mix-blend-mode:color-dodge"/>
<path d="M30.4481 -0.998047H29.2734C30.8391 5.70668 35.2912 11.8901 42.0033 16.6822C49.4983 22.0963 59.4067 25.4422 69.9916 26.1334V25.302C59.7073 24.6149 50.0853 21.3553 42.8047 16.0919C36.3176 11.4543 31.9992 5.48168 30.4481 -0.998047Z" fill="#794BC1" style="mix-blend-mode:color-dodge"/>
<path d="M28.1006 -0.998047H26.9434C28.5268 6.14535 33.2263 12.7431 40.3647 17.8441C48.2869 23.5681 58.7763 27.0897 69.9702 27.7838V26.9669C59.077 26.2741 48.8746 22.8392 41.1632 17.2683C34.241 12.3193 29.6697 5.92687 28.1006 -0.998047Z" fill="#794BC1" style="mix-blend-mode:color-dodge"/>
<path d="M25.7515 -0.998047H24.6348C26.2342 6.58498 31.1838 13.5979 38.7533 19.006C47.1044 25.0395 58.1755 28.7368 69.979 29.4341V28.6381C58.4709 27.9442 47.6805 24.3344 39.5345 18.4531C32.1711 13.191 27.3418 6.3756 25.7515 -0.998047Z" fill="#794BC1" style="mix-blend-mode:color-dodge"/>
<path d="M23.4197 -0.998047H22.3203C23.9366 7.02478 29.136 14.4534 37.1361 20.17C45.9159 26.5117 57.5674 30.3838 69.9791 31.0845V30.3092C57.8491 29.6129 46.4656 25.8227 37.8854 19.6233C30.0952 14.0498 25.021 6.81643 23.4197 -0.998047Z" fill="#794BC1" style="mix-blend-mode:color-dodge"/>
<path d="M21.0677 -0.998047H20.0117C21.3383 5.73374 25.0671 12.1043 30.8354 17.4942C36.6038 22.8841 44.2153 27.1098 52.9299 29.7605C58.3571 31.4116 64.1225 32.4162 69.9995 32.7349V31.9804C57.2566 31.2782 45.289 27.3103 36.277 20.7998C28.0357 14.9191 22.6949 7.26469 21.0677 -0.998047Z" fill="#794BC1" style="mix-blend-mode:color-dodge"/>
<path d="M34.6194 21.9785C29.5038 18.3116 25.4264 13.9669 22.6128 9.18494C20.6945 5.92896 19.3888 2.50383 18.7302 -1H17.7031C19.0347 6.0571 22.8995 12.7438 28.9176 18.4027C34.9357 24.0617 42.8999 28.4981 52.0274 31.2759C57.7324 33.0166 63.7976 34.07 69.9794 34.3937V33.6579C63.935 33.337 58.0046 32.307 52.4238 30.6086C45.7675 28.5868 39.7209 25.6558 34.6194 21.9785Z" fill="#794BC1" style="mix-blend-mode:color-dodge"/>
<path d="M32.981 23.1548C23.8912 16.64 18.0564 8.14795 16.3859 -0.998047H15.3906C16.7307 6.38427 20.7345 13.3865 27.0048 19.3137C33.2751 25.2409 41.5938 29.8871 51.1355 32.791C57.1237 34.6127 63.4912 35.7077 69.9785 36.0315V35.3206C63.6236 34.9968 57.3869 33.9209 51.5202 32.1363C44.5893 30.0331 38.2929 26.9828 32.981 23.1548Z" fill="#794BC1" style="mix-blend-mode:color-dodge"/>
<path d="M31.3407 24.3313C21.8159 17.5051 15.7318 8.59181 14.0512 -0.998047H13.082C14.4301 6.70946 18.5723 14.0274 25.0943 20.2232C31.6162 26.4191 40.289 31.2754 50.2445 34.3063C56.5146 36.2136 63.1848 37.3539 69.9786 37.6798V36.9835C63.3134 36.656 56.771 35.532 50.6206 33.6578C43.4145 31.4745 36.8668 28.3071 31.3407 24.3313Z" fill="#794BC1" style="mix-blend-mode:color-dodge"/>
<path d="M29.7034 25.5098C19.7431 18.3714 13.4088 9.03623 11.7167 -0.998047H10.7793C11.4802 3.26585 13.0192 7.43679 15.3505 11.3902C18.5583 16.8445 23.2086 21.7999 29.0437 25.9817C34.8641 30.175 41.7628 33.5161 49.3565 35.8195C55.9074 37.8133 62.8792 38.9994 69.9788 39.3281V38.6588C63.0066 38.3297 56.1608 37.162 49.7268 35.2042C42.2415 32.9348 35.4411 29.6424 29.7034 25.5098Z" fill="#794BC1" style="mix-blend-mode:color-dodge"/>
<path d="M28.067 26.6863C17.6713 19.2362 11.0868 9.47988 9.38306 -0.998047H8.47461C9.83218 7.36019 14.2482 15.3107 21.2731 22.0442C28.298 28.7777 37.6809 34.0535 48.4666 37.3347C55.2994 39.4141 62.5738 40.6455 69.98 40.9764V40.3258C62.6942 39.997 55.5385 38.784 48.8166 36.7382C41.0603 34.3833 34.0135 30.9696 28.067 26.6863Z" fill="#794BC1" style="mix-blend-mode:color-dodge"/>
<path d="M26.4259 27.8628C15.5933 20.1015 8.75754 9.92378 7.04177 -0.998047H6.17383C7.53617 7.68548 12.0883 15.9525 19.3634 22.9555C26.6386 29.9585 36.3751 35.4456 47.5748 38.8542C54.6894 41.0194 62.2665 42.296 69.9793 42.6288V42.0053C62.3831 41.6735 54.921 40.4146 47.9133 38.2826C39.8799 35.8408 32.5825 32.3021 26.4259 27.8628Z" fill="#794BC1" style="mix-blend-mode:color-dodge"/>
<path d="M24.7886 29.0413C13.5235 20.9669 6.44156 10.3671 4.71878 -0.998047H3.87109C5.23896 8.01033 9.92853 16.5932 17.4557 23.8645C24.9828 31.1358 35.0747 36.8321 46.6897 40.3653C54.0865 42.6155 61.9662 43.9365 69.9853 44.2709V43.6619C62.0795 43.3292 54.3117 42.0251 47.0195 39.8062C38.7092 37.2855 31.1591 33.6296 24.7886 29.0413Z" fill="#794BC1" style="mix-blend-mode:color-dodge"/>
<path d="M23.1483 30.2178C11.4474 21.8324 4.11786 10.8104 2.39001 -0.998047H1.56836C2.94037 8.33479 7.76546 17.2335 15.5424 24.7738C23.3194 32.314 33.7646 38.2208 45.793 41.8806C53.4717 44.2169 61.654 45.5838 69.9797 45.9213V45.333C61.7639 45.0005 53.6894 43.6525 46.1112 41.3484C37.5271 38.74 29.7287 34.9599 23.1483 30.2178Z" fill="#794BC1" style="mix-blend-mode:color-dodge"/>
<path d="M21.5106 31.3942C9.37532 22.6967 1.79668 11.2534 0.0579339 -0.998047H0.00585938V2.8951C2.19834 11.7992 7.45394 20.1684 15.2948 27.2416C23.1357 34.3149 33.3131 39.8679 44.9017 43.3958C52.863 45.8141 61.3483 47.2207 69.9795 47.553V46.9876C61.4527 46.652 53.0715 45.2567 45.2084 42.8637C36.351 40.1777 28.303 36.2826 21.5106 31.3942Z" fill="#794BC1" style="mix-blend-mode:color-dodge"/>
<path d="M19.8731 32.5734C10.3701 25.7563 3.52014 17.2689 0.00585938 7.95703V9.92127C3.3525 17.7034 9.02444 24.8665 16.6252 30.91C24.226 36.9534 33.5723 41.7313 44.0106 44.9097C52.2525 47.4182 61.0408 48.8736 69.9795 49.2102V48.6656C61.1426 48.3279 52.4549 46.8874 44.3057 44.4087C35.1721 41.6369 26.8743 37.6174 19.8731 32.5734Z" fill="#794BC1" style="mix-blend-mode:color-dodge"/>
<path d="M18.2327 33.7499C11.0015 28.5675 5.23884 22.4261 1.26438 15.6664C0.820764 14.914 0.401256 14.1567 0.00585938 13.3945V14.8495C0.198736 15.1904 0.391612 15.5306 0.584489 15.8701C8.70566 29.6338 23.9561 40.5903 43.1137 46.4249C51.6377 49.0191 60.7286 50.5197 69.9737 50.8585V50.3326C60.8273 49.9939 51.8339 48.5082 43.4002 45.9427C33.992 43.0866 25.4448 38.9457 18.2327 33.7499Z" fill="#794BC1" style="mix-blend-mode:color-dodge"/>
<path d="M16.5952 34.9271C9.67226 29.9657 4.05244 24.1474 0.00585938 17.752V18.945C4.03369 25.0115 9.47716 30.5378 16.1004 35.2846C23.5871 40.6779 32.4595 44.9762 42.2256 47.9409C51.0309 50.623 60.4245 52.1708 69.9766 52.5138V52.0087C60.5167 51.6705 51.2134 50.1395 42.4917 47.4857C32.8093 44.5435 24.0143 40.2783 16.5952 34.9271Z" fill="#794BC1" style="mix-blend-mode:color-dodge"/>
<path d="M14.9576 36.1037C8.9788 31.8182 3.93773 26.907 0.00585938 21.5371V22.5598C3.87602 27.6625 8.74783 32.3386 14.4716 36.4445C22.1713 41.9896 31.2964 46.408 41.3402 49.4542C50.4279 52.2198 60.1245 53.8094 69.9824 54.1497V53.6654C60.2151 53.3253 50.6081 51.7491 41.6035 49.0094C31.6425 45.9872 22.5931 41.6041 14.9576 36.1037Z" fill="#794BC1" style="mix-blend-mode:color-dodge"/>
<path d="M13.3163 37.2808C8.17479 33.5923 3.70316 29.4516 0.0078125 24.957V25.857C3.62067 30.1302 7.93648 34.0753 12.8621 37.6071C20.7673 43.3019 30.1359 47.8402 40.4482 50.9702C49.8172 53.8205 59.8154 55.4546 69.9786 55.7966V55.3331C59.9019 54.9934 49.9884 53.3749 40.697 50.5524C30.4614 47.4423 21.1627 42.9352 13.3163 37.2808Z" fill="#794BC1" style="mix-blend-mode:color-dodge"/>
<path d="M11.6797 38.458C7.29644 35.3134 3.3838 31.8476 0.00585938 28.1172V28.9216C3.28934 32.4643 7.05445 35.7639 11.2457 38.7719C19.3589 44.6176 28.9741 49.2766 39.5581 52.4904C49.2092 55.4256 59.5101 57.1042 69.9795 57.4478V57.0009C59.5927 56.6576 49.3734 54.991 39.7982 52.0788C29.2868 48.8886 19.7374 44.2628 11.6797 38.458Z" fill="#794BC1" style="mix-blend-mode:color-dodge"/>
<path d="M10.0422 39.6352C6.36456 36.9949 3.00696 34.1341 0.00585938 31.084V31.8094C2.90199 34.6992 6.11908 37.4157 9.62557 39.9324C17.9484 45.927 27.8111 50.7046 38.667 54.0001C48.6 57.0208 59.2039 58.7432 69.9795 59.0863V58.6706C59.2816 58.3269 48.7551 56.6136 38.8955 53.6114C28.1095 50.338 18.3105 45.5914 10.0422 39.6352Z" fill="#794BC1" style="mix-blend-mode:color-dodge"/>
<path d="M8.40184 40.8116C5.39014 38.6473 2.58696 36.3382 0.0117188 33.9004V34.5614C2.48222 36.8596 5.15518 39.0417 8.01416 41.0943C16.5439 47.2397 26.6536 52.1367 37.7818 55.5132C47.9961 58.6213 58.903 60.389 69.9854 60.7325V60.3313C58.9778 59.9883 48.1446 58.2319 37.9987 55.1453C26.9359 51.7873 16.8847 46.9195 8.40184 40.8116Z" fill="#794BC1" style="mix-blend-mode:color-dodge"/>
<path d="M6.76425 41.9893C4.38222 40.2786 2.12635 38.4796 0.00585938 36.5996V37.2024C2.00792 38.9525 4.13631 40.6383 6.39104 42.2595C15.1292 48.5545 25.4854 53.5707 36.8848 57.0298C47.3809 60.2238 58.5908 62.036 69.9795 62.38V61.9996C58.6616 61.6556 47.5216 59.854 37.0902 56.6806C25.7535 53.2396 15.4543 48.2502 6.76425 41.9893Z" fill="#794BC1" style="mix-blend-mode:color-dodge"/>
<path d="M5.12672 43.1673C3.34262 41.8855 1.63567 40.5622 0.00585938 39.1973V39.7502C1.52958 41.007 3.11792 42.2306 4.77087 43.4209C13.7182 49.8662 24.3219 55.0024 35.9937 58.5445C46.7719 61.8237 58.2846 63.6804 69.9795 64.0257V63.664C58.3523 63.3199 46.9065 61.4737 36.1904 58.214C24.5783 54.6897 14.0287 49.5796 5.12672 43.1673Z" fill="#794BC1" style="mix-blend-mode:color-dodge"/>
<path d="M3.48545 44.3441C2.29347 43.485 1.13621 42.6092 0.0136719 41.7168V42.2198C1.03206 43.0249 2.08323 43.8127 3.1672 44.5831C12.3189 51.1761 23.1641 56.4308 35.1018 60.0559C46.1618 63.4211 57.9773 65.3223 69.9786 65.668V65.3292C58.0394 64.9849 46.285 63.0942 35.2811 59.7483C23.3952 56.1399 12.597 50.9084 3.48545 44.3441Z" fill="#794BC1" style="mix-blend-mode:color-dodge"/>
<path d="M1.84879 45.5194C1.22773 45.0732 0.61342 44.6208 0.00585938 44.1621V44.6235C0.51216 44.9998 1.01845 45.3739 1.53633 45.746C10.9002 52.4911 21.9971 57.8665 34.2115 61.5742C45.5536 65.0244 57.672 66.9694 69.9795 67.3152V66.9972C57.7347 66.65 45.6785 64.7134 34.3938 61.2811C22.2273 57.5907 11.1743 52.2377 1.84879 45.5194Z" fill="#794BC1" style="mix-blend-mode:color-dodge"/>
<path d="M0.21127 46.6984L0.00585938 46.5508V46.9665C9.55908 53.8346 20.8719 59.3097 33.3204 63.0899C44.9447 66.6252 57.3658 68.6148 69.9795 68.9618V68.6625C57.4213 68.3176 45.0549 66.3364 33.4825 62.8155C21.0453 59.0399 9.74613 53.5664 0.21127 46.6984Z" fill="#794BC1" style="mix-blend-mode:color-dodge"/>
<path d="M0.00585938 48.8848V49.2693C9.42149 55.7595 20.4115 60.9563 32.4322 64.6028C38.7082 66.5102 45.2245 67.9802 51.8915 68.9927H53.8386C46.5462 67.982 39.4218 66.4235 32.5827 64.343C20.4917 60.6751 9.44759 55.4344 0.00585938 48.8848Z" fill="#794BC1" style="mix-blend-mode:color-dodge"/>
<path d="M0.00585938 51.1758V51.5333C9.26571 57.6697 19.9352 62.6072 31.5412 66.1269C35.1718 67.2254 38.8823 68.1822 42.6566 68.9932H43.9209C39.7583 68.129 35.6708 67.0879 31.68 65.8753C20.0114 62.3376 9.29236 57.363 0.00585938 51.1758Z" fill="#794BC1" style="mix-blend-mode:color-dodge"/>
<path d="M0.00585938 53.4277V53.7437C9.09732 59.5452 19.4501 64.2376 30.653 67.6347C32.2423 68.1169 33.8422 68.5721 35.4527 69.0003H36.4103C34.5182 68.5098 32.6415 67.9825 30.7803 67.4185C19.5213 64.0022 9.12361 59.2751 0.00585938 53.4277Z" fill="#794BC1" style="mix-blend-mode:color-dodge"/>
<path d="M0.00585938 55.6387V55.9234C8.78061 61.3231 18.6496 65.7304 29.2729 68.9934H30.0367L29.8747 68.9456C19.0162 65.6524 8.93881 61.1628 0.00585938 55.6387Z" fill="#794BC1" style="mix-blend-mode:color-dodge"/>
<path d="M0.00578753 58.076C7.26493 62.3982 15.2319 66.067 23.7296 69.0009H24.3632C15.6223 66.022 7.43711 62.2657 0 57.8203L0.00578753 58.076Z" fill="#794BC1" style="mix-blend-mode:color-dodge"/>
<path d="M0.00585938 60.1954C5.82252 63.5449 12.0678 66.4909 18.658 68.994H19.1787C12.3943 66.4401 5.97296 63.4167 0.00585938 59.9668V60.1954Z" fill="#794BC1" style="mix-blend-mode:color-dodge"/>
<path d="M0.00585938 62.2895C4.42109 64.7536 9.07007 66.9934 13.919 68.9929H14.3501C9.3446 66.9411 4.55085 64.6335 0.00585938 62.0879V62.2895Z" fill="#794BC1" style="mix-blend-mode:color-dodge"/>
<path d="M0.00585938 64.3596C3.05524 66.0128 6.20297 67.5592 9.44908 68.999H9.80205C6.43057 67.5135 3.16517 65.9116 0.00585938 64.1934V64.3596Z" fill="#794BC1" style="mix-blend-mode:color-dodge"/>
<path d="M0.00585938 66.4092C1.7051 67.3002 3.43424 68.1614 5.19327 68.9928H5.48258C3.62711 68.1198 1.80443 67.2101 0.0145385 66.2637L0.00585938 66.4092Z" fill="#794BC1" style="mix-blend-mode:color-dodge"/>
</g>
<g style="mix-blend-mode:hard-light" filter="url(#filter0_f_217_3224)">
<path fill-rule="evenodd" clip-rule="evenodd" d="M50.1105 50.6465C52.2176 48.018 53.6971 41.8549 53.6971 34.6718C53.6971 32.7297 53.589 30.8622 53.3896 29.1189H53.4257C53.2526 26.3103 52.3929 23.5653 51.9023 22.1938C50.8474 19.1883 49.4126 17.3398 47.832 17.3398C47.8036 17.3398 47.7752 17.3404 47.7469 17.3416H41.965H41.9649C38.7256 17.3418 36.0996 25.1011 36.0996 34.6726C36.0996 35.2938 36.1107 35.9074 36.1322 36.5117L36.0996 36.5636C36.0996 38.0921 36.4175 40.429 36.5397 41.2712C37.4181 47.5698 39.5163 52.0034 41.9649 52.0035V52.0039H47.8302V52.0037H47.8318C48.1507 52.0037 48.4637 51.9285 48.7689 51.7836H48.8127C48.8959 51.7324 48.975 51.6808 49.05 51.6291C49.3156 51.4633 49.5745 51.2443 49.8255 50.9762C49.9601 50.8366 50.0541 50.7209 50.1105 50.6465Z" fill="url(#paint1_radial_217_3224)"/>
</g>
<g style="mix-blend-mode:hard-light" filter="url(#filter1_f_217_3224)">
<path fill-rule="evenodd" clip-rule="evenodd" d="M60.5519 50.6465C62.659 48.018 64.1385 41.8549 64.1385 34.6718C64.1385 32.7297 64.0304 30.8622 63.831 29.1189H63.8671C63.694 26.3102 62.8343 23.5652 62.3436 22.1937C61.2888 19.1883 59.854 17.3398 58.2734 17.3398C58.245 17.3398 58.2166 17.3404 58.1883 17.3416H52.4064H52.4063C49.167 17.3418 46.541 25.1011 46.541 34.6726C46.541 35.2938 46.5521 35.9074 46.5736 36.5117L46.541 36.5636C46.541 38.0922 46.8589 40.429 46.9811 41.2712C47.8595 47.5698 49.9577 52.0034 52.4063 52.0035V52.0039H58.2716V52.0037H58.2732C58.5921 52.0037 58.9051 51.9285 59.2103 51.7836H59.2541C59.3373 51.7324 59.4164 51.6808 59.4914 51.6292C59.757 51.4633 60.0159 51.2443 60.2669 50.9762C60.4015 50.8366 60.4955 50.7209 60.5519 50.6465Z" fill="url(#paint2_radial_217_3224)"/>
</g>
<mask id="mask0_217_3224" style="mask-type:alpha" maskUnits="userSpaceOnUse" x="42" y="16" width="42" height="37">
<rect x="42.9277" y="16.8438" width="40.4171" height="36.1439" fill="#C4C4C4"/>
</mask>
<g mask="url(#mask0_217_3224)">
<path d="M72.4178 20.6552C71.8959 22.7093 70.3954 24.3793 69.1928 24.8291C68.3507 25.1423 67.5157 25.0813 66.6986 24.9228C66.2919 24.8447 65.2924 24.6893 64.9716 25.445C65.5101 24.2031 66.31 23.3308 67.1363 22.7778C67.9626 22.2248 72.0845 21.9658 72.4178 20.6552Z" fill="#DC3A14"/>
<path d="M76.4767 32.9994C76.0583 33.8902 75.5689 34.5795 75.276 35.6226C75.2241 35.7764 75.1993 35.948 75.205 36.1142C75.2218 36.2218 75.2559 36.316 75.3037 36.3869C75.3516 36.4578 75.4114 36.5028 75.477 36.5171C75.6081 36.5456 75.741 36.5601 75.8752 36.5606C75.918 36.5593 75.9595 36.573 75.9971 36.601C76.0346 36.6289 76.0675 36.6704 76.0936 36.723C76.1176 36.798 76.1299 36.8841 76.1296 36.9739C76.2898 41.2953 72.5124 43.4009 70.6194 43.992C68.2119 44.7438 65.8316 44.4591 63.4432 44.6141L64.427 46.1129C64.1132 46.729 63.5841 46.7139 63.1433 46.6302C57.7271 45.6035 52.3551 43.2914 46.7954 44.9376L47.2664 45.6998C45.1602 46.11 43.0542 46.7039 40.9568 47.4791C39.5607 47.9966 38.1269 49.3647 37.3024 51.5493C37.5049 49.901 37.4931 47.8082 37.8887 46.2361C38.6742 43.1187 39.8193 40.2409 41.2485 37.7926C43.3813 34.1161 46.0619 31.4252 48.8616 29.826L49.1324 29.6779C51.1189 28.5958 53.2733 27.9425 54.8896 25.521C54.6988 26.6875 54.285 27.7551 53.7179 28.5437C57.7902 26.7813 62.175 26.8301 65.7812 22.7334C64.1269 26.4395 61.9026 29.3177 59.4124 30.9745C59.3218 31.0357 59.2307 31.0932 59.1385 31.1507C60.7213 31.4655 62.3306 31.5723 63.9529 31.4702C66.939 31.2827 70.1418 30.712 72.9594 28.1622L72.0299 29.8377C71.3643 31.0356 72.3983 31.2498 72.8971 31.3078C73.4732 31.3707 74.0138 31.0086 74.5654 30.6015C75.9627 29.5492 77.2201 27.9237 78.3757 26.1716C78.0733 28.5541 77.4451 30.8473 76.5445 32.8558L76.4767 32.9994Z" fill="#FA4A19"/>
<path d="M37.7822 48.943C38.9882 41.9809 42.8088 35.3683 46.7879 32.6415C47.0732 32.4452 47.3611 32.2812 47.6505 32.1315C48.7649 31.5531 49.889 31.1765 50.9281 29.911C50.306 31.1574 49.5843 32.2516 48.7896 33.1533C52.1626 30.3585 56.0043 30.4457 59.3249 27.4285C58.6432 28.0524 57.9882 29.3029 57.3103 30.0517C56.9315 30.467 55.5854 31.3222 55.6091 32.2577C55.619 32.3932 55.6514 32.5163 55.7026 32.6133C55.7538 32.7103 55.8218 32.7772 55.8989 32.8065C56.6611 33.1687 57.6596 32.8744 58.4695 32.8935C59.4771 32.9182 60.481 32.9869 61.4881 33.0258C62.5908 33.0698 63.6988 33.0753 64.812 32.9481C65.3535 32.8864 65.8964 32.7946 66.4393 32.6637C66.8175 32.5718 67.7797 32.5631 68.0915 32.1333C67.2928 33.2286 66.4113 34.1164 65.481 34.7626C65.3555 34.8204 65.2412 34.9535 65.16 35.1362C64.9966 35.6124 65.3746 35.9806 65.6673 36.0446C68.3197 36.6185 71.1068 35.5936 73.8297 34.576L71.0735 36.9938C70.8077 37.2278 70.4963 37.5972 70.5169 38.0739C71.8006 38.5121 73.124 38.7162 74.4663 38.6828C74.1568 39.3349 73.6587 39.588 73.2002 39.7885C71.2547 40.6334 69.2957 41.2829 67.3337 41.7334C66.336 41.9639 65.3323 42.1653 64.3375 42.2663C63.4685 42.3491 62.7893 41.9196 61.8818 42.542C61.787 42.5929 61.6997 42.6891 61.6307 42.8184C61.4538 43.2114 61.6877 43.6829 61.9245 43.874C62.1613 44.0652 62.4534 44.3121 62.4146 44.7805C61.4758 44.7526 60.6089 44.2155 59.7281 43.8066C56.5438 42.3252 53.0749 42.4955 49.6612 42.6754C47.7718 42.7748 45.8729 42.8766 43.9796 43.498C43.7845 43.562 43.5212 43.7909 43.5679 44.1034C43.6146 44.4159 43.9468 44.3793 43.9677 44.7032C43.9898 44.9882 43.7622 45.1713 43.589 45.2216C42.7594 45.4669 41.9274 45.4543 41.1 45.6891C39.772 46.0505 38.7955 47.3797 37.7822 48.943Z" fill="#FA7B19"/>
<path d="M50.0277 39.2339C49.446 39.3161 48.8646 39.4304 48.2835 39.5766C46.661 39.9909 45.0462 40.6673 43.4611 41.5965C42.6691 42.0632 41.8866 42.5926 41.1136 43.1847C40.4548 43.6907 39.8348 44.3658 39.2775 45.1841C39.1938 45.3047 39.0689 45.4279 38.9997 45.3119C40.0479 42.8675 41.4011 40.842 42.7567 38.9074C43.4448 37.9252 44.1149 36.9393 44.8466 36.0632C45.7679 34.959 46.7004 33.8737 47.6325 32.7636L46.9244 34.641C46.8136 34.9345 46.7005 35.3149 46.8036 35.5696C46.8622 35.6927 46.9495 35.7659 47.0472 35.7739C47.6843 35.8861 48.6765 34.7505 49.275 34.3077C51.2144 32.8704 53.1943 31.5584 55.2148 30.6986C54.4224 31.3993 53.6297 32.1035 52.8878 32.9696C51.8773 34.1511 52.7194 34.8863 53.4691 34.9042C54.2655 34.9254 55.0894 34.6476 55.8912 34.5059C58.1792 34.1335 60.4593 34.0451 62.7134 34.2414C62.1785 34.5428 61.6513 34.9007 61.1351 35.313C60.9525 35.4583 60.7415 35.6859 60.7344 36.0138C60.7272 36.3418 60.9318 36.5098 61.1114 36.5881C63.1973 37.5266 65.2788 38.2532 67.5105 38.353C66.8356 38.5778 66.1022 38.6168 65.4492 38.8938C65.3422 38.9372 65.2205 39.059 65.2289 39.2251C65.2399 39.3095 65.2682 39.381 65.3091 39.4276L65.7022 40.032L61.0607 39.9091C60.5694 39.8945 59.9949 39.8176 59.5086 40.0755C59.466 40.3533 59.6396 40.5234 59.7747 40.6536C59.9098 40.7839 60.0307 41.1187 59.8933 41.3098C59.2216 40.8989 58.5355 40.5455 57.8349 40.2499C55.3319 39.197 52.697 38.8542 50.0277 39.2339Z" fill="#FFB302"/>
<path d="M68.8812 46.197C69.8311 46.5548 70.7711 47.1142 71.7775 46.9255C70.6487 47.8329 69.3606 48.4564 68.2905 47.7673C67.5987 47.3222 66.9909 46.6979 66.2557 46.3883C67.169 45.8537 68.009 45.869 68.8812 46.197Z" fill="#F66718"/>
</g>
<path fill-rule="evenodd" clip-rule="evenodd" d="M53.0575 36.0164C53.0575 43.1075 50.698 48.857 47.7894 48.857C44.8807 48.857 42.5215 43.1075 42.5215 36.0164C42.5215 28.9252 44.881 23.1758 47.7896 23.1758C50.6982 23.1758 53.0575 28.925 53.0575 36.0164Z" fill="#0069FF"/>
<path d="M47.7877 23.1777H42.5195V48.8577H47.7877V23.1777Z" fill="#0069FF"/>
<path d="M42.5201 48.8575C45.4296 48.8575 47.7882 43.1089 47.7882 36.0176C47.7882 28.9263 45.4296 23.1777 42.5201 23.1777C39.6106 23.1777 37.252 28.9263 37.252 36.0176C37.252 43.1089 39.6106 48.8575 42.5201 48.8575Z" fill="#3085FF"/>
<path fill-rule="evenodd" clip-rule="evenodd" d="M45.8691 26.1035H51.137C51.137 26.1035 52.5947 28.9565 52.815 31.9041H47.5136C47.5136 31.9041 46.9798 28.3197 45.8691 26.1035Z" fill="#0DA9FF"/>
<path fill-rule="evenodd" clip-rule="evenodd" d="M37.252 37.4196L45.8681 26.1035C45.8681 26.1035 47.2642 29.149 47.5125 31.9041L37.6896 41.1417C37.6896 41.1417 37.252 38.8217 37.252 37.4196Z" fill="#1FAFFF"/>
<path fill-rule="evenodd" clip-rule="evenodd" d="M45.0001 36.0123C45.0001 40.1655 43.873 43.6372 42.36 44.471C42.1364 44.5927 41.903 44.6637 41.6593 44.6637C39.801 44.6637 38.3086 40.7951 38.3086 36.0123C38.3086 31.2399 39.801 27.3711 41.6593 27.3711C41.903 27.3711 42.1367 27.4421 42.36 27.5641C43.873 28.3969 45.0001 31.8695 45.0001 36.0123Z" fill="#165FC7"/>
<path fill-rule="evenodd" clip-rule="evenodd" d="M44.9999 36.0107C44.9999 40.1639 43.8728 43.6356 42.3597 44.4694C40.8367 43.6468 39.6992 40.1741 39.6992 36.0107C39.6992 31.8578 40.8367 28.3858 42.3597 27.5625C43.8728 28.3953 44.9999 31.868 44.9999 36.0107Z" fill="#0069FF"/>
<path fill-rule="evenodd" clip-rule="evenodd" d="M44.6264 47.7852H49.895C49.895 47.7852 49.5225 48.2625 48.6716 48.6942H43.3105C43.3105 48.6942 44.3435 48.339 44.6264 47.7852Z" fill="#0DA9FF"/>
<g style="mix-blend-mode:hard-light" filter="url(#filter2_f_217_3224)">
<path fill-rule="evenodd" clip-rule="evenodd" d="M52.9408 51.3933C53.9004 48.7383 54.5725 42.6063 54.5725 35.4667C54.5725 33.5246 54.5228 31.6571 54.4311 29.9139H54.4479C54.367 27.0593 53.96 24.2705 53.7364 22.9225C53.2524 19.9561 52.597 18.1348 51.8756 18.1348C51.8625 18.1348 51.8495 18.1354 51.8364 18.1366H49.1775H49.1768V18.1366C47.6876 18.1391 46.4805 25.8975 46.4805 35.4675C46.4805 36.0887 46.4856 36.7023 46.4955 37.3066L46.4805 37.3586C46.4805 38.8871 46.6266 41.2239 46.6828 42.0661C47.0867 48.3634 48.0511 52.7965 49.1768 52.7984V52.7988H51.8738V52.7986L51.8755 52.7987C52.0221 52.7987 52.1661 52.7234 52.3064 52.5785H52.3278C52.3709 52.5209 52.4115 52.4626 52.4499 52.4045C52.5541 52.2591 52.6561 52.075 52.7555 51.8545C52.8555 51.6404 52.9159 51.4689 52.9408 51.3933Z" fill="url(#paint3_radial_217_3224)"/>
</g>
<g style="mix-blend-mode:color-dodge" filter="url(#filter3_f_217_3224)">
<path fill-rule="evenodd" clip-rule="evenodd" d="M53.0737 43.4522C53.5691 42.0736 53.916 38.9031 53.916 35.2126C53.916 34.2068 53.8902 33.2397 53.8427 32.3369H53.8505C53.8126 30.9978 53.636 29.6866 53.5171 28.9329C53.2636 27.2701 52.9103 26.2383 52.5195 26.2383C52.5101 26.2383 52.5007 26.2389 52.4914 26.2401H51.1231H51.1231C50.3518 26.2401 49.7266 30.2578 49.7266 35.2138C49.7266 35.5351 49.7292 35.8524 49.7343 36.1649L49.7266 36.1917C49.7266 36.9653 49.7989 38.1389 49.8293 38.5986C50.0372 41.8769 50.5382 44.1876 51.1231 44.1876L51.1231 44.1878H52.5195V44.1868C52.5952 44.1868 52.6694 44.1481 52.7418 44.0737H52.7536C52.7786 44.0404 52.8019 44.0066 52.8238 43.973C52.8718 43.9044 52.9189 43.8199 52.9649 43.7205C53.0268 43.5911 53.0621 43.4881 53.0737 43.4522Z" fill="url(#paint4_radial_217_3224)"/>
</g>
<g style="mix-blend-mode:color-dodge" filter="url(#filter4_f_217_3224)">
<path fill-rule="evenodd" clip-rule="evenodd" d="M51.8223 35.4643C51.8223 33.1508 52.114 31.2751 52.474 31.2734H52.4745H53.1261C53.2836 31.2734 53.428 31.6322 53.5407 32.2295H53.5415C53.5415 32.2295 53.7219 33.1607 53.7492 34.1228H53.7442C53.7663 34.5441 53.7783 34.9953 53.7783 35.4646C53.7783 37.183 53.6173 38.66 53.387 39.3068H53.3876C53.3876 39.3068 53.3415 39.4626 53.2361 39.6035H53.2293C53.1957 39.6379 53.1612 39.6557 53.1261 39.6557C53.1231 39.6557 53.12 39.6556 53.1169 39.6553H52.474V39.6552C52.2042 39.6539 51.9728 38.6006 51.8738 37.0993C51.8628 36.9393 51.8223 36.319 51.8223 35.923L51.8259 35.9104C51.8235 35.7638 51.8223 35.615 51.8223 35.4643Z" fill="url(#paint5_radial_217_3224)"/>
</g>
<g style="mix-blend-mode:screen" opacity="0.33">
<g style="mix-blend-mode:hard-light" filter="url(#filter5_f_217_3224)">
<path fill-rule="evenodd" clip-rule="evenodd" d="M52.5179 56.216C55.0402 53.0027 56.8067 45.5886 56.8067 36.9569C56.8067 34.6085 56.6759 32.3503 56.4348 30.2423H56.4821C56.1854 25.4303 54.2225 20.7726 54.2225 20.7726H54.2213C52.9955 17.7872 51.4249 15.9941 49.7129 15.9941H42.6188V15.9959C38.7012 15.9969 35.5254 25.3813 35.5254 36.9574C35.5254 37.7094 35.5388 38.4521 35.5649 39.1836L35.5254 39.2466C35.5254 41.1256 35.9226 44.0146 36.0648 44.989C37.1314 52.5802 39.6644 57.9189 42.6195 57.9189C42.6471 57.9189 42.6747 57.9185 42.7022 57.9175H49.6129C49.6461 57.9189 49.6793 57.9196 49.7126 57.9196C50.0991 57.9196 50.4784 57.8282 50.8482 57.6523H50.9033C51.0141 57.5841 51.119 57.5152 51.2179 57.4464C51.4944 57.2698 51.7648 57.0456 52.0283 56.7768C52.2941 56.515 52.4536 56.3059 52.5179 56.216Z" fill="url(#paint6_radial_217_3224)"/>
</g>
<g style="mix-blend-mode:hard-light" filter="url(#filter6_f_217_3224)">
<path fill-rule="evenodd" clip-rule="evenodd" d="M65.1468 56.216C67.6691 53.0027 69.4356 45.5886 69.4356 36.9569C69.4356 34.6085 69.3049 32.3503 69.0637 30.2423H69.111C68.8143 25.4303 66.8514 20.7726 66.8514 20.7726H66.8502C65.6244 17.7872 64.0538 15.9941 62.3418 15.9941H55.2477V15.9959C51.3301 15.9969 48.1543 25.3813 48.1543 36.9574C48.1543 37.7094 48.1677 38.4521 48.1938 39.1836L48.1543 39.2466C48.1543 41.1256 48.5515 44.0146 48.6937 44.989C49.7603 52.5802 52.2933 57.9189 55.2484 57.9189C55.276 57.9189 55.3036 57.9185 55.3311 57.9175H62.2418C62.275 57.9189 62.3082 57.9196 62.3415 57.9196C62.728 57.9196 63.1073 57.8282 63.4771 57.6523H63.5322C63.643 57.5841 63.7479 57.5152 63.8468 57.4464C64.1233 57.2698 64.3937 57.0456 64.6572 56.7768C64.923 56.515 65.0825 56.3059 65.1468 56.216Z" fill="url(#paint7_radial_217_3224)"/>
</g>
<mask id="mask1_217_3224" style="mask-type:alpha" maskUnits="userSpaceOnUse" x="46" y="7" width="62" height="56">
<rect x="46.4766" y="7.90039" width="60.5255" height="54.1263" fill="#C4C4C4"/>
</mask>
<g mask="url(#mask1_217_3224)">
<path d="M96.7151 30.378C96.0886 31.712 95.3557 32.7443 94.9171 34.3063C94.8393 34.5365 94.8022 34.7936 94.8107 35.0425C94.8358 35.2036 94.8869 35.3447 94.9586 35.4509C95.0303 35.557 95.1199 35.6244 95.218 35.6458C95.4143 35.6885 95.6134 35.7102 95.8143 35.7109C95.8785 35.709 95.9406 35.7296 95.9968 35.7714C96.0531 35.8132 96.1023 35.8754 96.1415 35.9542C96.1773 36.0665 96.1958 36.1954 96.1954 36.33C96.4352 42.8013 90.7785 45.9544 87.9437 46.8397C84.3384 47.9655 80.7739 47.5391 77.1972 47.7712L78.6704 50.0157C78.2006 50.9384 77.4082 50.9157 76.7481 50.7904C68.6372 49.2528 60.5926 45.7905 52.2667 48.2557L52.9721 49.3971C49.818 50.0114 46.6643 50.9008 43.5234 52.0617C41.4326 52.8366 39.2855 54.8854 38.0508 58.1568C38.354 55.6885 38.3363 52.5544 38.9287 50.2002C40.1051 45.5318 41.82 41.2223 43.9602 37.5559C47.154 32.0503 51.1683 28.0206 55.3609 25.6257L55.7664 25.4039C58.7412 23.7835 61.9675 22.8052 64.388 19.179C64.1023 20.9257 63.4825 22.5246 62.6334 23.7055C68.7317 21.0663 75.298 21.1393 80.6984 15.0044C78.221 20.5544 74.89 24.8646 71.1609 27.3456C71.0254 27.4372 70.8888 27.5235 70.7508 27.6095C73.121 28.0809 75.531 28.2409 77.9605 28.088C82.4322 27.8072 87.2284 26.9525 91.4478 23.1342L90.0559 25.6433C89.0592 27.4371 90.6076 27.7579 91.3546 27.8448C92.2172 27.9389 93.0268 27.3967 93.853 26.787C95.9454 25.2113 97.8284 22.7771 99.559 20.1533C99.1061 23.721 98.1653 27.1552 96.8167 30.1629L96.7151 30.378Z" fill="#FA4A19"/>
<path d="M38.7685 54.2555C40.5745 43.8296 46.2959 33.9271 52.2548 29.8437C52.682 29.5497 53.1132 29.304 53.5465 29.0799C55.2154 28.2137 56.8987 27.6497 58.4548 25.7546C57.5232 27.6212 56.4424 29.2598 55.2523 30.61C60.3035 26.4248 66.0565 26.5554 71.0292 22.037C70.0084 22.9713 69.0275 24.844 68.0122 25.9653C67.4451 26.5872 65.4293 27.868 65.4647 29.2689C65.4795 29.4717 65.528 29.6562 65.6048 29.8014C65.6815 29.9467 65.7833 30.0469 65.8987 30.0907C67.0401 30.6331 68.5354 30.1923 69.7482 30.221C71.2572 30.258 72.7605 30.3609 74.2687 30.4192C75.92 30.485 77.5792 30.4932 79.2462 30.3027C80.0572 30.2103 80.8701 30.0729 81.6832 29.8769C82.2496 29.7392 83.6905 29.7262 84.1574 29.0826C82.9613 30.7227 81.6412 32.0523 80.2482 33.02C80.0602 33.1065 79.889 33.3058 79.7675 33.5795C79.5227 34.2926 80.0888 34.844 80.527 34.9398C84.4991 35.7993 88.6728 34.2645 92.7504 32.7405L88.623 36.3613C88.2249 36.7117 87.7587 37.2648 87.7895 37.9787C89.7119 38.635 91.6937 38.9406 93.7037 38.8906C93.2403 39.8672 92.4944 40.2461 91.8077 40.5463C88.8943 41.8117 85.9606 42.7843 83.0226 43.459C81.5286 43.8041 80.0255 44.1057 78.5357 44.257C77.2343 44.381 76.2172 43.7377 74.8582 44.6698C74.7162 44.7461 74.5855 44.8901 74.4822 45.0837C74.2173 45.6722 74.5675 46.3784 74.9222 46.6646C75.2768 46.9508 75.7142 47.3205 75.656 48.022C74.2502 47.9803 72.9521 47.1759 71.633 46.5636C66.8645 44.3451 61.6697 44.6002 56.5576 44.8696C53.7281 45.0184 50.8845 45.1709 48.0494 46.1014C47.7571 46.1972 47.3629 46.54 47.4327 47.008C47.5026 47.476 48.0002 47.4212 48.0315 47.9063C48.0645 48.333 47.7237 48.6072 47.4643 48.6826C46.222 49.0499 44.976 49.031 43.737 49.3827C41.7483 49.9239 40.286 51.9144 38.7685 54.2555Z" fill="#FA7B19"/>
<path d="M57.1055 39.7165C56.2344 39.8396 55.3638 40.0106 54.4935 40.2296C52.0639 40.85 49.6456 41.8629 47.2719 43.2544C46.0859 43.9534 44.9141 44.7462 43.7565 45.6328C42.7698 46.3905 41.8415 47.4015 41.0069 48.627C40.8815 48.8075 40.6944 48.992 40.5909 48.8184C42.1606 45.1578 44.187 42.1246 46.217 39.2274C47.2474 37.7566 48.2509 36.2802 49.3467 34.9682C50.7263 33.3146 52.1228 31.6895 53.5187 30.027L52.4583 32.8384C52.2924 33.278 52.123 33.8476 52.2773 34.229C52.3652 34.4134 52.4959 34.523 52.6421 34.535C53.5962 34.703 55.082 33.0025 55.9783 32.3393C58.8826 30.1869 61.8475 28.2221 64.8733 26.9346C63.6867 27.9839 62.4996 29.0384 61.3886 30.3355C59.8753 32.1048 61.1364 33.2059 62.2591 33.2326C63.4516 33.2644 64.6854 32.8483 65.8863 32.6361C69.3126 32.0784 72.7271 31.9461 76.1026 32.2401C75.3016 32.6914 74.5121 33.2274 73.739 33.8448C73.4656 34.0624 73.1497 34.4031 73.139 34.8943C73.1282 35.3854 73.4346 35.6371 73.7036 35.7542C76.8273 37.1597 79.9443 38.2479 83.2864 38.3972C82.2757 38.7339 81.1774 38.7923 80.1995 39.2071C80.0392 39.2721 79.857 39.4544 79.8696 39.7033C79.8861 39.8296 79.9285 39.9367 79.9897 40.0065L80.5784 40.9116L73.6276 40.7275C72.8919 40.7057 72.0315 40.5905 71.3033 40.9767C71.2395 41.3928 71.4996 41.6474 71.7019 41.8424C71.9042 42.0375 72.0853 42.5389 71.8794 42.8251C70.8736 42.2097 69.8461 41.6806 68.797 41.2379C65.0487 39.6612 61.1028 39.1477 57.1055 39.7165Z" fill="#FFB302"/>
</g>
<path fill-rule="evenodd" clip-rule="evenodd" d="M63.5108 36.0563C63.5108 48.1375 59.4909 57.9329 54.5354 57.9329C49.58 57.9329 45.5605 48.1375 45.5605 36.0563C45.5605 23.9751 49.5804 14.1797 54.5359 14.1797C59.4913 14.1797 63.5108 23.9746 63.5108 36.0563Z" fill="#0069FF"/>
<path d="M54.5339 14.1816H45.5586V57.9327H54.5339V14.1816Z" fill="#0069FF"/>
<path d="M45.5593 57.9323C50.5163 57.9323 54.5346 48.1384 54.5346 36.057C54.5346 23.9756 50.5163 14.1816 45.5593 14.1816C40.6024 14.1816 36.584 23.9756 36.584 36.057C36.584 48.1384 40.6024 57.9323 45.5593 57.9323Z" fill="#3085FF"/>
<path fill-rule="evenodd" clip-rule="evenodd" d="M51.2637 19.166H60.2386C60.2386 19.166 62.722 24.0267 63.0973 29.0486H54.0653C54.0653 29.0486 53.156 22.9417 51.2637 19.166Z" fill="#0DA9FF"/>
<path fill-rule="evenodd" clip-rule="evenodd" d="M36.584 38.4453L51.2633 19.166C51.2633 19.166 53.6418 24.3546 54.065 29.0486L37.3296 44.7866C37.3296 44.7866 36.584 40.834 36.584 38.4453Z" fill="#1FAFFF"/>
<path fill-rule="evenodd" clip-rule="evenodd" d="M49.7832 36.0463C49.7832 43.1221 47.863 49.0368 45.2852 50.4573C44.9043 50.6647 44.5066 50.7857 44.0915 50.7857C40.9255 50.7857 38.3828 44.1948 38.3828 36.0463C38.3828 27.9155 40.9255 21.3242 44.0915 21.3242C44.5066 21.3242 44.9047 21.4452 45.2852 21.653C47.863 23.0718 49.7832 28.9882 49.7832 36.0463Z" fill="#165FC7"/>
<path fill-rule="evenodd" clip-rule="evenodd" d="M49.7827 36.0476C49.7827 43.1234 47.8625 49.0381 45.2847 50.4586C42.69 49.0572 40.752 43.1408 40.752 36.0476C40.752 28.9722 42.69 23.057 45.2847 21.6543C47.8625 23.0731 49.7827 28.9895 49.7827 36.0476Z" fill="#0069FF"/>
<path fill-rule="evenodd" clip-rule="evenodd" d="M49.15 56.1074H58.1262C58.1262 56.1074 57.4915 56.9207 56.0418 57.6561H46.9082C46.9082 57.6561 48.6681 57.051 49.15 56.1074Z" fill="#0DA9FF"/>
<g style="mix-blend-mode:hard-light" filter="url(#filter7_f_217_3224)">
<path fill-rule="evenodd" clip-rule="evenodd" d="M51.3442 16.9551H54.6063H54.6081C55.3953 16.9551 56.1175 18.7482 56.6811 21.7336H56.6812C56.6812 21.7336 57.5838 26.3912 57.7202 31.2033H57.699C57.8098 33.3113 57.8699 35.5694 57.8699 37.9178C57.8699 46.584 57.0512 54.0227 55.884 57.2152C55.8522 57.3082 55.7928 57.4701 55.7034 57.6685C55.5687 57.9772 55.4299 58.2306 55.2877 58.4245C55.2455 58.4876 55.2011 58.5507 55.1544 58.6132H55.1301C54.9601 58.7891 54.7856 58.8805 54.6079 58.8805C54.5926 58.8805 54.5773 58.8798 54.5621 58.8785H51.3841C51.3714 58.8794 51.3587 58.8799 51.346 58.8799C49.9872 58.8799 48.8225 53.5412 48.332 45.9499C48.2666 44.9756 48.084 42.0865 48.084 40.2075L48.1022 40.1446C48.0901 39.4131 48.084 38.6703 48.084 37.9184C48.084 26.3454 49.5435 16.963 51.3442 16.9569V16.9551Z" fill="url(#paint8_radial_217_3224)"/>
</g>
<g style="mix-blend-mode:color-dodge" filter="url(#filter8_f_217_3224)">
<path fill-rule="evenodd" clip-rule="evenodd" d="M52.0098 37.6134C52.0098 31.6206 52.7656 26.7623 53.6981 26.7598H53.6988H55.3871C55.7947 26.7598 56.1687 27.6882 56.4605 29.2341H56.4613C56.4613 29.2341 56.9286 31.6457 56.9993 34.1374H56.9876C57.045 35.2288 57.0761 36.3981 57.0761 37.614C57.0761 42.0652 56.6589 45.891 56.0623 47.5657C56.0547 47.5905 56.0073 47.7396 55.9137 47.9299C55.8632 48.0363 55.8117 48.1278 55.7593 48.2037C55.7319 48.246 55.7025 48.2885 55.6711 48.3305H55.6568C55.569 48.4211 55.4789 48.4683 55.387 48.4683C55.3791 48.4683 55.3712 48.4679 55.3633 48.4672H53.6981V48.467C52.9964 48.4651 52.3948 45.7137 52.1399 41.7985C52.1077 41.3208 52.0098 39.7896 52.0098 38.7996L52.0192 38.767C52.013 38.3879 52.0098 38.0031 52.0098 37.6134Z" fill="url(#paint9_radial_217_3224)"/>
</g>
<g style="mix-blend-mode:color-dodge" filter="url(#filter9_f_217_3224)">
<path fill-rule="evenodd" clip-rule="evenodd" d="M55.3337 42.9872L55.3345 42.9872V42.9873H56.1122C56.1159 42.9877 56.1196 42.9878 56.1232 42.9878C56.1663 42.9878 56.2085 42.9657 56.2497 42.923H56.2536C56.2595 42.9151 56.2653 42.9071 56.2709 42.8991C56.6359 42.4548 56.9121 40.3938 56.9121 37.9187C56.9121 37.3506 56.8975 36.8043 56.8707 36.2943H56.874C56.855 35.6232 56.7743 34.9646 56.7095 34.5272C56.5651 33.4972 56.3559 32.8496 56.1233 32.8496H55.3345V32.8496L55.3337 32.8496C54.8981 32.8496 54.5449 35.119 54.5449 37.9184C54.5449 38.1002 54.5464 38.2797 54.5493 38.4565L54.5449 38.4717C54.5449 38.9214 54.5882 39.6104 54.6044 39.8529C54.7227 41.6927 55.0047 42.9872 55.3337 42.9872Z" fill="url(#paint10_radial_217_3224)"/>
</g>
</g>
<mask id="mask2_217_3224" style="mask-type:alpha" maskUnits="userSpaceOnUse" x="-13" y="17" width="42" height="37">
<rect width="40.4171" height="36.1439" transform="matrix(-1 0 0 1 28.0078 17.0352)" fill="#C4C4C4"/>
</mask>
<g mask="url(#mask2_217_3224)">
<path d="M-1.48027 20.8466C-0.958405 22.9007 0.542103 24.5707 1.74473 25.0205C2.5868 25.3337 3.42177 25.2727 4.23892 25.1142C4.64557 25.0361 5.6451 24.8807 5.96589 25.6365C5.42737 24.3945 4.62754 23.5223 3.80121 22.9692C2.97488 22.4162 -1.14696 22.1572 -1.48027 20.8466Z" fill="#DC3A14"/>
<path d="M-5.53724 33.1888C-5.11887 34.0796 -4.62944 34.769 -4.33659 35.8121C-4.28466 35.9658 -4.25984 36.1374 -4.26553 36.3037C-4.28231 36.4113 -4.31642 36.5055 -4.36429 36.5764C-4.41215 36.6473 -4.47199 36.6922 -4.53753 36.7065C-4.6686 36.7351 -4.80157 36.7496 -4.9357 36.75C-4.97857 36.7487 -5.02004 36.7625 -5.0576 36.7904C-5.09516 36.8184 -5.12802 36.8599 -5.15419 36.9125C-5.17811 36.9875 -5.19046 37.0735 -5.19019 37.1634C-5.35033 41.4848 -1.57294 43.5903 0.320059 44.1815C2.72759 44.9333 5.10784 44.6485 7.49624 44.8035L6.5125 46.3023C6.82623 46.9185 7.35532 46.9033 7.79614 46.8197C13.2123 45.7929 18.5843 43.4809 24.1441 45.1271L23.6731 45.8893C25.7793 46.2995 27.8852 46.8934 29.9826 47.6686C31.3788 48.1861 32.8126 49.5542 33.6371 51.7387C33.4346 50.0904 33.4464 47.9976 33.0508 46.4255C32.2652 43.3081 31.1201 40.4304 29.6909 37.9821C27.5582 34.3056 24.8776 31.6147 22.0779 30.0154L21.8071 29.8673C19.8206 28.7852 17.6662 28.132 16.0499 25.7105C16.2406 26.8769 16.6545 27.9446 17.2215 28.7332C13.1493 26.9708 8.76445 27.0195 5.15825 22.9228C6.81256 26.6289 9.0369 29.5072 11.5271 31.1639C11.6176 31.2251 11.7088 31.2827 11.801 31.3401C10.2182 31.6549 8.60889 31.7617 6.98656 31.6597C4.00047 31.4722 0.797675 30.9014 -2.01991 28.3517L-1.09045 30.0272C-0.424818 31.225 -1.45883 31.4392 -1.95767 31.4972C-2.53369 31.5601 -3.07432 31.198 -3.62599 30.7909C-5.02326 29.7387 -6.28063 28.1132 -7.43627 26.3611C-7.13386 28.7435 -6.5056 31.0368 -5.60508 33.0452L-5.53724 33.1888Z" fill="#FA4A19"/>
<path d="M33.1573 49.1325C31.9513 42.1704 28.1307 35.5578 24.1515 32.831C23.8662 32.6347 23.5784 32.4706 23.289 32.321C22.1746 31.7425 21.0505 31.3659 20.0114 30.1005C20.6335 31.3469 21.3552 32.4411 22.1499 33.3428C18.7768 30.548 14.9352 30.6352 11.6145 27.6179C12.2962 28.2418 12.9512 29.4924 13.6292 30.2411C14.0079 30.6564 15.354 31.5117 15.3304 32.4472C15.3205 32.5826 15.2881 32.7058 15.2368 32.8028C15.1856 32.8998 15.1176 32.9667 15.0406 32.9959C14.2784 33.3582 13.2798 33.0638 12.47 33.0829C11.4623 33.1077 10.4584 33.1764 9.45132 33.2153C8.34862 33.2593 7.24069 33.2647 6.12748 33.1375C5.58591 33.0758 5.0431 32.984 4.50011 32.8532C4.12193 32.7612 3.15972 32.7525 2.84793 32.3228C3.64665 33.418 4.52816 34.3058 5.45841 34.952C5.58394 35.0098 5.69826 35.1429 5.77941 35.3257C5.94287 35.8018 5.56482 36.1701 5.27218 36.234C2.61977 36.808 -0.167314 35.7831 -2.89022 34.7654L-0.134076 37.1833C0.131788 37.4172 0.443115 37.7866 0.42256 38.2633C-0.861165 38.7016 -2.18457 38.9056 -3.5268 38.8722C-3.21732 39.5244 -2.71929 39.7774 -2.26073 39.9779C-0.315204 40.8229 1.6438 41.4724 3.60572 41.9229C4.6034 42.1533 5.60711 42.3547 6.60191 42.4558C7.47098 42.5386 8.15014 42.109 9.05767 42.7314C9.15246 42.7824 9.2398 42.8786 9.30874 43.0079C9.48561 43.4008 9.25179 43.8724 9.01495 44.0635C8.77812 44.2546 8.48602 44.5015 8.5249 44.97C9.46369 44.9421 10.3305 44.405 11.2113 43.996C14.3956 42.5146 17.8646 42.685 21.2783 42.8649C23.1677 42.9642 25.0666 43.0661 26.9598 43.6874C27.155 43.7514 27.4182 43.9803 27.3716 44.2928C27.3249 44.6054 26.9926 44.5688 26.9718 44.8927C26.9497 45.1776 27.1773 45.3607 27.3505 45.4111C28.18 45.6564 29.0121 45.6437 29.8395 45.8786C31.1674 46.24 32.144 47.5692 33.1573 49.1325Z" fill="#FA7B19"/>
<path d="M20.9118 39.4234C21.4934 39.5056 22.0748 39.6198 22.656 39.766C24.2784 40.1804 25.8932 40.8567 27.4783 41.7859C28.2703 42.2527 29.0528 42.7821 29.8258 43.3741C30.4847 43.8801 31.1046 44.5552 31.6619 45.3736C31.7457 45.4941 31.8706 45.6173 31.9397 45.5014C30.8915 43.057 29.5383 41.0315 28.1828 39.0968C27.4947 38.1147 26.8246 37.1287 26.0929 36.2526C25.1716 35.1484 24.2391 34.0632 23.3069 32.9531L24.015 34.8304C24.1258 35.124 24.2389 35.5043 24.1359 35.7591C24.0772 35.8821 23.9899 35.9553 23.8923 35.9633C23.2552 36.0756 22.263 34.94 21.6644 34.4971C19.7251 33.0598 17.7452 31.7478 15.7247 30.888C16.517 31.5887 17.3098 32.2929 18.0516 33.159C19.0622 34.3406 18.22 35.0758 17.4704 35.0937C16.674 35.1149 15.8501 34.837 15.0482 34.6953C12.7602 34.323 10.4802 34.2346 8.22607 34.4309C8.76093 34.7322 9.28813 35.0902 9.8044 35.5025C9.98695 35.6478 10.1979 35.8753 10.2051 36.2033C10.2123 36.5312 10.0077 36.6993 9.82807 36.7775C7.74213 37.7161 5.66066 38.4427 3.42894 38.5424C4.10388 38.7673 4.83727 38.8063 5.49029 39.0832C5.59729 39.1267 5.71898 39.2484 5.71054 39.4146C5.69955 39.4989 5.67123 39.5705 5.63038 39.617L5.23722 40.2215L9.87878 40.0985C10.3701 40.084 10.9446 40.007 11.4309 40.2649C11.4735 40.5428 11.2998 40.7128 11.1647 40.8431C11.0296 40.9733 10.9087 41.3082 11.0462 41.4993C11.7178 41.0883 12.4039 40.735 13.1045 40.4393C15.6075 39.3865 18.2425 39.0436 20.9118 39.4234Z" fill="#FFB302"/>
<path d="M2.05821 46.3865C1.1084 46.7443 0.16832 47.3036 -0.838088 47.115C0.290772 48.0224 1.57884 48.6458 2.64894 47.9568C3.34072 47.5116 3.9485 46.8873 4.68372 46.5778C3.77043 46.0431 2.93048 46.0584 2.05821 46.3865Z" fill="#F66718"/>
</g>
<g style="mix-blend-mode:hard-light" filter="url(#filter10_f_217_3224)">
<path fill-rule="evenodd" clip-rule="evenodd" d="M34.3116 51.2927C36.2417 48.8476 37.5943 43.181 37.5943 36.5817C37.5943 34.789 37.4945 33.0651 37.3104 31.456H37.3433C37.1861 28.9062 36.4161 26.4132 35.96 25.1273C34.9846 22.3161 33.6516 20.584 32.182 20.584C32.1547 20.584 32.1275 20.5846 32.1003 20.5858H26.768H26.7678C23.7786 20.5861 21.3555 27.748 21.3555 36.5826C21.3555 37.1558 21.3657 37.722 21.3856 38.2797L21.3555 38.3276C21.3555 39.7317 21.646 41.8748 21.76 42.6615C22.5696 48.4813 24.5067 52.5791 26.7678 52.5794V52.5797H32.1803V52.5794H32.1818C32.4758 52.5794 32.7644 52.5101 33.0457 52.3766H33.0885C33.1735 52.3243 33.2539 52.2715 33.3297 52.2187C33.5462 52.0804 33.7579 51.9039 33.964 51.6915C34.1456 51.5105 34.2594 51.3646 34.3116 51.2927Z" fill="url(#paint11_radial_217_3224)"/>
</g>
<g style="mix-blend-mode:hard-light" filter="url(#filter11_f_217_3224)">
<path fill-rule="evenodd" clip-rule="evenodd" d="M24.8722 51.2927C26.8022 48.8476 28.1548 43.181 28.1548 36.5817C28.1548 34.789 28.055 33.0651 27.871 31.456H27.9038C27.7467 28.9062 26.9766 26.4132 26.5206 25.1273C25.5451 22.3161 24.2121 20.584 22.7426 20.584C22.7153 20.584 22.688 20.5846 22.6608 20.5858H17.3285H17.3283C14.3392 20.5861 11.916 27.748 11.916 36.5826C11.916 37.1558 11.9262 37.722 11.9461 38.2797L11.916 38.3276C11.916 39.7317 12.2065 41.8748 12.3205 42.6615C13.1301 48.4813 15.0673 52.5791 17.3283 52.5794V52.5797H22.7408V52.5794H22.7423C23.0364 52.5794 23.3249 52.5101 23.6063 52.3766H23.6491C23.7341 52.3243 23.8144 52.2715 23.8902 52.2187C24.1068 52.0804 24.3185 51.9039 24.5245 51.6915C24.7062 51.5105 24.8199 51.3646 24.8722 51.2927Z" fill="url(#paint12_radial_217_3224)"/>
</g>
<path fill-rule="evenodd" clip-rule="evenodd" d="M17.837 35.9617C17.837 43.0529 20.1965 48.8023 23.1052 48.8023C26.0138 48.8023 28.373 43.0529 28.373 35.9617C28.373 28.8706 26.0136 23.1211 23.1049 23.1211C20.1963 23.1211 17.837 28.8703 17.837 35.9617Z" fill="#FF1A2D"/>
<path d="M23.1049 23.123H28.373V48.803H23.1049V23.123Z" fill="#FF1A2D"/>
<path d="M28.3725 48.8028C25.463 48.8028 23.1044 43.0542 23.1044 35.9629C23.1044 28.8717 25.463 23.123 28.3725 23.123C31.282 23.123 33.6406 28.8717 33.6406 35.9629C33.6406 43.0542 31.282 48.8028 28.3725 48.8028Z" fill="#FF3747"/>
<path fill-rule="evenodd" clip-rule="evenodd" d="M25.0234 26.0488H19.7556C19.7556 26.0488 18.2979 28.9018 18.0776 31.8495H23.379C23.379 31.8495 23.9127 28.265 25.0234 26.0488Z" fill="#FF5339"/>
<path fill-rule="evenodd" clip-rule="evenodd" d="M33.6406 37.365L25.0245 26.0488C25.0245 26.0488 23.6284 29.0943 23.3801 31.8495L33.203 41.087C33.203 41.087 33.6406 38.767 33.6406 37.365Z" fill="#FF6952"/>
<path fill-rule="evenodd" clip-rule="evenodd" d="M25.8925 35.9576C25.8925 40.1108 27.0196 43.5825 28.5326 44.4163C28.7561 44.538 28.9896 44.609 29.2333 44.609C31.0915 44.609 32.584 40.7404 32.584 35.9576C32.584 31.1852 31.0915 27.3164 29.2333 27.3164C28.9896 27.3164 28.7559 27.3874 28.5326 27.5094C27.0196 28.3422 25.8925 31.8148 25.8925 35.9576Z" fill="#C90011"/>
<path fill-rule="evenodd" clip-rule="evenodd" d="M25.8927 35.956C25.8927 40.1092 27.0198 43.5809 28.5328 44.4147C30.0558 43.5921 31.1934 40.1194 31.1934 35.956C31.1934 31.8031 30.0558 28.3312 28.5328 27.5078C27.0198 28.3406 25.8927 31.8133 25.8927 35.956Z" fill="#EF1325"/>
<path fill-rule="evenodd" clip-rule="evenodd" d="M26.2662 47.7305H20.9976C20.9976 47.7305 21.3701 48.2078 22.221 48.6395H27.582C27.582 48.6395 26.5491 48.2843 26.2662 47.7305Z" fill="#FF5339"/>
<g style="mix-blend-mode:hard-light" filter="url(#filter12_f_217_3224)">
<path fill-rule="evenodd" clip-rule="evenodd" d="M26.6473 51.3036C27.5328 48.8482 28.1529 43.1866 28.1529 36.5954C28.1529 34.8013 28.107 33.0761 28.0223 31.4658H28.0376C27.9641 28.8704 27.5987 26.3338 27.3903 25.0671C26.9422 22.2913 26.3328 20.584 25.6615 20.584C25.6489 20.584 25.6364 20.5846 25.6238 20.5858L23.1699 20.5858L23.1693 20.5858C21.7932 20.5858 20.6777 27.7539 20.6777 36.5962C20.6777 37.1701 20.6824 37.7369 20.6916 38.2952L20.6777 38.3432C20.6777 39.7553 20.8128 41.9142 20.8647 42.6922C21.2378 48.5109 22.1291 52.6067 23.1693 52.6067H23.1699V52.607H25.6615V52.6067C25.7972 52.6067 25.9303 52.5369 26.0601 52.4026H26.0796C26.1188 52.3501 26.1559 52.2971 26.1909 52.2441C26.287 52.1104 26.3811 51.941 26.4727 51.7382C26.5682 51.5343 26.6251 51.3716 26.6473 51.3036Z" fill="url(#paint13_radial_217_3224)"/>
</g>
<g style="mix-blend-mode:color-dodge" filter="url(#filter13_f_217_3224)">
<path fill-rule="evenodd" clip-rule="evenodd" d="M23.7106 44.2079C24.1714 42.9783 24.4956 40.0583 24.4956 36.6521C24.4956 35.7359 24.4722 34.8549 24.4289 34.0325H24.4377C24.3845 32.1553 24.0324 30.3384 24.0324 30.3384H24.0318C23.812 29.174 23.5303 28.4746 23.2232 28.4746H21.9507V28.4764L21.9502 28.4764C21.2475 28.4764 20.6777 32.1374 20.6777 36.6534C20.6777 36.9463 20.6801 37.2356 20.6848 37.5206L20.6777 37.545C20.6777 38.2571 20.745 39.341 20.7722 39.7508C20.9622 42.7311 21.418 44.8305 21.9502 44.8305C21.9588 44.8305 21.9674 44.8299 21.9759 44.8288H23.2053C23.2112 44.8294 23.2172 44.8296 23.2231 44.8296C23.2921 44.8296 23.3598 44.7943 23.4258 44.7264H23.4354C23.4533 44.7026 23.4702 44.6785 23.4863 44.6544C23.5477 44.5715 23.6074 44.4601 23.6651 44.3226C23.6848 44.2769 23.6999 44.2376 23.7106 44.2079Z" fill="url(#paint14_radial_217_3224)"/>
</g>
<g style="mix-blend-mode:color-dodge" filter="url(#filter14_f_217_3224)">
<path fill-rule="evenodd" clip-rule="evenodd" d="M22.2493 40.0173L22.2495 40.0173V40.0173H22.7206L22.7273 40.0176C22.7536 40.0176 22.7795 40.0039 22.8047 39.9775H22.8073C22.8119 39.9714 22.8162 39.9653 22.8205 39.9592C23.0397 39.6805 23.205 38.4378 23.205 36.9473C23.205 36.6034 23.1962 36.2727 23.18 35.964H23.182C23.1706 35.5613 23.1226 35.1661 23.0835 34.9012C22.996 34.2726 22.8688 33.877 22.7273 33.877H22.2495H22.2493C21.9854 33.877 21.7715 35.2515 21.7715 36.9471C21.7715 37.0574 21.7724 37.1663 21.7742 37.2736L21.7715 37.2828C21.7715 37.5652 21.7997 38.0034 21.8085 38.1345C21.8808 39.2405 22.0509 40.0173 22.2493 40.0173Z" fill="url(#paint15_radial_217_3224)"/>
</g>
<g style="mix-blend-mode:screen" opacity="0.33">
<g style="mix-blend-mode:hard-light" filter="url(#filter15_f_217_3224)">
<path fill-rule="evenodd" clip-rule="evenodd" d="M28.8365 57.151C31.3588 53.9439 33.1256 46.532 33.1256 37.9019C33.1256 35.555 32.995 33.2983 32.7541 31.1918H32.7992C32.5775 27.594 31.4238 24.0827 30.857 22.543C29.5927 19.0765 27.8997 16.957 26.0397 16.957H18.9535V16.9588L18.9534 16.9588C15.0398 16.9588 11.8672 26.3356 11.8672 37.9024C11.8672 38.6534 11.8806 39.395 11.9066 40.1255L11.8672 40.1883C11.8672 42.0452 12.2553 44.8891 12.4012 45.8931C13.4638 53.4959 15.9972 58.8461 18.9534 58.8461C18.981 58.8461 19.0086 58.8456 19.0361 58.8447H25.9398C25.9729 58.846 26.0061 58.8467 26.0394 58.8467C26.4253 58.8467 26.804 58.7555 27.1732 58.5799H27.2281C27.3379 58.5124 27.4418 58.4441 27.5398 58.376C27.8207 58.197 28.0953 57.9687 28.3627 57.6945C28.616 57.4436 28.7706 57.2426 28.8365 57.151Z" fill="url(#paint16_radial_217_3224)"/>
</g>
<g style="mix-blend-mode:hard-light" filter="url(#filter16_f_217_3224)">
<path fill-rule="evenodd" clip-rule="evenodd" d="M16.4791 57.151C19.0014 53.9439 20.7682 46.532 20.7682 37.9019C20.7682 35.555 20.6376 33.2983 20.3967 31.1918H20.4418C20.2201 27.594 19.0664 24.0827 18.4996 22.543C17.2352 19.0765 15.5423 16.957 13.6823 16.957H6.59605V16.9588L6.59601 16.9588C2.68239 16.9588 -0.490234 26.3356 -0.490234 37.9024C-0.490234 38.6534 -0.476863 39.395 -0.450786 40.1255L-0.490234 40.1883C-0.490234 42.0452 -0.10217 44.8891 0.0437922 45.8931C1.10641 53.4959 3.63981 58.8461 6.59601 58.8461C6.62361 58.8461 6.65117 58.8456 6.67869 58.8447H13.5823C13.6155 58.846 13.6487 58.8467 13.682 58.8467C14.0679 58.8467 14.4466 58.7555 14.8158 58.5799H14.8707C14.9805 58.5124 15.0844 58.4441 15.1824 58.376C15.4633 58.197 15.7379 57.9687 16.0053 57.6945C16.2586 57.4436 16.4132 57.2426 16.4791 57.151Z" fill="url(#paint17_radial_217_3224)"/>
</g>
<mask id="mask3_217_3224" style="mask-type:alpha" maskUnits="userSpaceOnUse" x="-36" y="6" width="61" height="55">
<rect width="60.5255" height="54.1263" transform="matrix(-1 0 0 1 24.5254 6)" fill="#C4C4C4"/>
</mask>
<g mask="url(#mask3_217_3224)">
<path d="M-25.7112 30.1983C-25.0847 31.5323 -24.3518 32.5646 -23.9132 34.1266C-23.8354 34.3569 -23.7983 34.6139 -23.8068 34.8628C-23.8319 35.0239 -23.883 35.165 -23.9547 35.2712C-24.0264 35.3773 -24.116 35.4447 -24.2141 35.4661C-24.4104 35.5088 -24.6095 35.5306 -24.8104 35.5312C-24.8746 35.5293 -24.9367 35.5499 -24.9929 35.5917C-25.0492 35.6335 -25.0984 35.6957 -25.1376 35.7745C-25.1734 35.8869 -25.1919 36.0157 -25.1915 36.1503C-25.4313 42.6216 -19.7746 45.7747 -16.9398 46.66C-13.3344 47.7858 -9.76997 47.3594 -6.1933 47.5915L-7.66646 49.836C-7.19665 50.7587 -6.40433 50.736 -5.74419 50.6107C2.36668 49.0731 10.4113 45.6108 18.7372 48.076L18.0318 49.2175C21.1859 49.8318 24.3397 50.7211 27.4805 51.882C29.5713 52.657 31.7184 54.7057 32.9531 57.9771C32.6499 55.5088 32.6676 52.3748 32.0752 50.0205C30.8988 45.3521 29.1839 41.0427 27.0437 37.3763C23.8499 31.8706 19.8356 27.841 15.643 25.4461L15.2375 25.2242C12.2627 23.6038 9.03639 22.6255 6.61593 18.9993C6.90163 20.7461 7.52138 22.3449 8.37052 23.5258C2.27221 20.8866 -4.29413 20.9596 -9.69449 14.8247C-7.21712 20.3747 -3.88613 24.6849 -0.157035 27.1659C-0.0214535 27.2576 0.115065 27.3438 0.253097 27.4298C-2.1171 27.9012 -4.52708 28.0612 -6.95655 27.9083C-11.4283 27.6275 -16.2245 26.7728 -20.4439 22.9545L-19.052 25.4636C-18.0553 27.2574 -19.6037 27.5782 -20.3507 27.6651C-21.2133 27.7593 -22.0229 27.217 -22.8491 26.6073C-24.9415 25.0316 -26.8245 22.5974 -28.5551 19.9736C-28.1022 23.5413 -27.1613 26.9755 -25.8128 29.9832L-25.7112 30.1983Z" fill="#FA4A19"/>
<path d="M32.2354 54.0758C30.4294 43.6499 24.708 33.7474 18.7491 29.664C18.3219 29.37 17.8907 29.1244 17.4574 28.9002C15.7885 28.034 14.1052 27.47 12.5491 25.5749C13.4807 27.4415 14.5615 29.0801 15.7516 30.4303C10.7004 26.2452 4.94737 26.3757 -0.0253341 21.8573C0.995526 22.7916 1.97643 24.6644 2.99166 25.7856C3.55881 26.4076 5.57462 27.6883 5.53922 29.0892C5.52438 29.292 5.47586 29.4765 5.39916 29.6217C5.32245 29.767 5.22063 29.8672 5.10521 29.911C3.96382 30.4534 2.46851 30.0126 1.25571 30.0413C-0.253275 30.0783 -1.75659 30.1812 -3.26479 30.2395C-4.91611 30.3053 -6.57525 30.3135 -8.24231 30.123C-9.05332 30.0306 -9.86619 29.8932 -10.6793 29.6972C-11.2457 29.5595 -12.6866 29.5465 -13.1535 28.9029C-11.9574 30.543 -10.6373 31.8726 -9.24425 32.8403C-9.05627 32.9269 -8.88507 33.1261 -8.76355 33.3998C-8.51876 34.1129 -9.08489 34.6643 -9.52314 34.7601C-13.4952 35.6196 -17.6689 34.0848 -21.7465 32.5608L-17.6191 36.1816C-17.221 36.532 -16.7548 37.0851 -16.7855 37.799C-18.708 38.4553 -20.6898 38.7609 -22.6998 38.7109C-22.2363 39.6875 -21.4905 40.0664 -20.8038 40.3666C-17.8904 41.632 -14.9567 42.6046 -12.0187 43.2793C-10.5246 43.6244 -9.02157 43.926 -7.53183 44.0773C-6.23038 44.2013 -5.21332 43.5581 -3.85428 44.4901C-3.71233 44.5664 -3.58155 44.7104 -3.4783 44.9041C-3.21343 45.4925 -3.56359 46.1987 -3.91826 46.4849C-4.27292 46.7711 -4.71034 47.1408 -4.65212 47.8423C-3.24625 47.8006 -1.94816 46.9962 -0.629107 46.3839C4.13941 44.1654 9.33421 44.4205 14.4463 44.6899C17.2758 44.8387 20.1194 44.9912 22.9546 45.9217C23.2468 46.0175 23.641 46.3603 23.5712 46.8283C23.5013 47.2963 23.0037 47.2416 22.9725 47.7266C22.9394 48.1533 23.2802 48.4275 23.5396 48.5029C24.7819 48.8702 26.0279 48.8513 27.2669 49.203C29.2556 49.7442 30.7179 51.7347 32.2354 54.0758Z" fill="#FA7B19"/>
<path d="M13.8984 39.5368C14.7695 39.6599 15.6401 39.8309 16.5104 40.0499C18.94 40.6703 21.3583 41.6832 23.732 43.0747C24.918 43.7737 26.0899 44.5665 27.2474 45.4531C28.2341 46.2108 29.1624 47.2218 29.997 48.4473C30.1224 48.6279 30.3095 48.8123 30.413 48.6387C28.8433 44.9781 26.8169 41.9449 24.7869 39.0478C23.7565 37.5769 22.753 36.1005 21.6572 34.7885C20.2776 33.1349 18.8811 31.5098 17.4852 29.8473L18.5456 32.6587C18.7115 33.0983 18.8809 33.6679 18.7266 34.0493C18.6387 34.2337 18.508 34.3433 18.3618 34.3553C17.4077 34.5233 15.9219 32.8228 15.0256 32.1596C12.1213 30.0072 9.1564 28.0424 6.13065 26.7549C7.3172 27.8042 8.50433 28.8587 9.61533 30.1558C11.1286 31.9252 9.86748 33.0262 8.74483 33.0529C7.55227 33.0847 6.31847 32.6686 5.11766 32.4564C1.69131 31.8988 -1.72314 31.7664 -5.09868 32.0604C-4.29771 32.5117 -3.50822 33.0477 -2.7351 33.6651C-2.46172 33.8827 -2.1458 34.2234 -2.13505 34.7146C-2.12431 35.2057 -2.43067 35.4574 -2.69966 35.5745C-5.82339 36.9801 -8.94043 38.0682 -12.2825 38.2175C-11.2718 38.5542 -10.1735 38.6126 -9.19557 39.0274C-9.03534 39.0924 -8.8531 39.2747 -8.86574 39.5236C-8.8822 39.6499 -8.92461 39.757 -8.98578 39.8268L-9.57454 40.732L-2.62371 40.5478C-1.88795 40.526 -1.02764 40.4108 -0.299405 40.797C-0.235589 41.2131 -0.495695 41.4677 -0.697981 41.6628C-0.900268 41.8578 -1.08136 42.3592 -0.875526 42.6455C0.13028 42.03 1.15776 41.5009 2.20692 41.0582C5.95517 39.4815 9.90109 38.968 13.8984 39.5368Z" fill="#FFB302"/>
</g>
<path fill-rule="evenodd" clip-rule="evenodd" d="M7.37399 36.0582C7.37399 48.1395 11.3939 57.9348 16.3493 57.9348C21.3048 57.9348 25.3242 48.1395 25.3242 36.0582C25.3242 23.977 21.3043 14.1816 16.3489 14.1816C11.3934 14.1816 7.37399 23.9766 7.37399 36.0582Z" fill="#FF1A2D"/>
<path d="M16.3508 14.1836H25.3262V57.9347H16.3508V14.1836Z" fill="#FF1A2D"/>
<path d="M25.3255 57.9343C20.3685 57.9343 16.3501 48.1403 16.3501 36.0589C16.3501 23.9775 20.3685 14.1836 25.3255 14.1836C30.2824 14.1836 34.3008 23.9775 34.3008 36.0589C34.3008 48.1403 30.2824 57.9343 25.3255 57.9343Z" fill="#FF3747"/>
<path fill-rule="evenodd" clip-rule="evenodd" d="M19.6211 19.168H10.6462C10.6462 19.168 8.16275 24.0286 7.78742 29.0505H16.8194C16.8194 29.0505 17.7288 22.9437 19.6211 19.168Z" fill="#FF5339"/>
<path fill-rule="evenodd" clip-rule="evenodd" d="M34.3008 38.4473L19.6215 19.168C19.6215 19.168 17.243 24.3566 16.8198 29.0505L33.5552 44.7886C33.5552 44.7886 34.3008 40.836 34.3008 38.4473Z" fill="#FF6952"/>
<path fill-rule="evenodd" clip-rule="evenodd" d="M21.1016 36.0482C21.1016 43.1241 23.0218 49.0388 25.5996 50.4593C25.9804 50.6666 26.3782 50.7876 26.7933 50.7876C29.9593 50.7876 32.502 44.1967 32.502 36.0482C32.502 27.9175 29.9593 21.3262 26.7933 21.3262C26.3782 21.3262 25.98 21.4472 25.5996 21.655C23.0218 23.0738 21.1016 28.9902 21.1016 36.0482Z" fill="#C90011"/>
<path fill-rule="evenodd" clip-rule="evenodd" d="M21.102 36.0495C21.102 43.1254 23.0223 49.0401 25.6001 50.4606C28.1948 49.0591 30.1328 43.1427 30.1328 36.0495C30.1328 28.9741 28.1948 23.059 25.6001 21.6562C23.0223 23.0751 21.102 28.9915 21.102 36.0495Z" fill="#EF1325"/>
<path fill-rule="evenodd" clip-rule="evenodd" d="M21.7347 56.1094H12.7586C12.7586 56.1094 13.3933 56.9227 14.843 57.6581H23.9766C23.9766 57.6581 22.2167 57.053 21.7347 56.1094Z" fill="#FF5339"/>
<g style="mix-blend-mode:hard-light" filter="url(#filter17_f_217_3224)">
<path fill-rule="evenodd" clip-rule="evenodd" d="M14.2427 16.957H17.5047H17.5065C18.2937 16.957 19.0159 18.7501 19.5796 21.7355H19.5796C19.5796 21.7355 20.4822 26.3931 20.6186 31.2052H20.5974C20.7083 33.3132 20.7684 35.5714 20.7684 37.9197C20.7684 46.5859 19.9496 54.0247 18.7824 57.2171C18.7506 57.3101 18.6913 57.4721 18.6019 57.6704C18.4671 57.9792 18.3283 58.2326 18.1861 58.4264C18.144 58.4895 18.0995 58.5526 18.0528 58.6152H18.0285C17.8585 58.791 17.6841 58.8825 17.5064 58.8825C17.491 58.8825 17.4758 58.8818 17.4605 58.8804H14.2825C14.2698 58.8814 14.2571 58.8818 14.2444 58.8818C12.8856 58.8818 11.7209 53.5431 11.2304 45.9519C11.165 44.9775 10.9824 42.0885 10.9824 40.2095L11.0006 40.1465C10.9886 39.415 10.9824 38.6723 10.9824 37.9203C10.9824 26.3474 12.4419 16.9649 14.2427 16.9588V16.957Z" fill="url(#paint18_radial_217_3224)"/>
</g>
<g style="mix-blend-mode:color-dodge" filter="url(#filter18_f_217_3224)">
<path fill-rule="evenodd" clip-rule="evenodd" d="M10.9824 37.9928C10.9824 32.0823 11.7278 27.2905 12.6475 27.2871H12.6484H14.3135C14.7155 27.2871 15.0844 28.2028 15.3722 29.7274H15.3733C15.3733 29.7274 15.8343 32.1062 15.904 34.5639H15.8921C15.9487 35.6405 15.9794 36.794 15.9794 37.9934C15.9794 42.3941 15.5661 46.1751 14.9754 47.8209C14.962 47.8625 14.9217 47.9804 14.8511 48.1295C14.7917 48.2598 14.7307 48.3691 14.6684 48.456C14.6449 48.4916 14.6199 48.5273 14.5935 48.5627H14.5806C14.4936 48.6529 14.4044 48.6997 14.3134 48.6997C14.3056 48.6997 14.2978 48.6994 14.29 48.6987H12.6475V48.6985C11.955 48.6959 11.3613 45.9785 11.1103 42.1127C11.0779 41.6329 10.9824 40.1337 10.9824 39.1626L10.9917 39.1304C10.9856 38.7566 10.9824 38.3771 10.9824 37.9928Z" fill="url(#paint19_radial_217_3224)"/>
</g>
<g style="mix-blend-mode:color-dodge" filter="url(#filter19_f_217_3224)">
<path fill-rule="evenodd" clip-rule="evenodd" d="M12.416 38.3809C12.416 36.1624 12.6957 34.3637 13.0409 34.3613V34.3613H13.0415H13.6664C13.8346 34.3613 13.9873 34.7882 14.0997 35.4825C14.1519 35.7988 14.2445 36.4389 14.2631 37.0939H14.2591C14.2804 37.498 14.2919 37.9309 14.2919 38.3811C14.2919 40.0284 14.1376 41.4444 13.9169 42.0653H13.9176C13.9176 42.0653 13.8916 42.1529 13.8341 42.2547C13.8307 42.2607 13.8274 42.2665 13.824 42.2722C13.8088 42.2978 13.7916 42.3241 13.7723 42.3499H13.7663C13.7338 42.3835 13.7004 42.4009 13.6664 42.4009C13.6634 42.4009 13.6605 42.4008 13.6576 42.4005H13.0409V42.4005C12.7817 42.3987 12.5595 41.3844 12.4648 39.9402C12.4536 39.7744 12.416 39.1937 12.416 38.8206L12.4195 38.8084C12.4172 38.668 12.416 38.5253 12.416 38.3809Z" fill="url(#paint20_radial_217_3224)"/>
</g>
</g>
</g>
<defs>
<filter id="filter0_f_217_3224" x="-93.9004" y="-112.66" width="277.598" height="294.664" filterUnits="userSpaceOnUse" color-interpolation-filters="sRGB">
<feFlood flood-opacity="0" result="BackgroundImageFix"/>
<feBlend mode="normal" in="SourceGraphic" in2="BackgroundImageFix" result="shape"/>
<feGaussianBlur stdDeviation="65" result="effect1_foregroundBlur_217_3224"/>
</filter>
<filter id="filter1_f_217_3224" x="-133.459" y="-162.66" width="377.598" height="394.664" filterUnits="userSpaceOnUse" color-interpolation-filters="sRGB">
<feFlood flood-opacity="0" result="BackgroundImageFix"/>
<feBlend mode="normal" in="SourceGraphic" in2="BackgroundImageFix" result="shape"/>
<feGaussianBlur stdDeviation="90" result="effect1_foregroundBlur_217_3224"/>
</filter>
<filter id="filter2_f_217_3224" x="-53.5195" y="-81.8652" width="208.092" height="234.664" filterUnits="userSpaceOnUse" color-interpolation-filters="sRGB">
<feFlood flood-opacity="0" result="BackgroundImageFix"/>
<feBlend mode="normal" in="SourceGraphic" in2="BackgroundImageFix" result="shape"/>
<feGaussianBlur stdDeviation="50" result="effect1_foregroundBlur_217_3224"/>
</filter>
<filter id="filter3_f_217_3224" x="9.72656" y="-13.7617" width="84.1895" height="97.9492" filterUnits="userSpaceOnUse" color-interpolation-filters="sRGB">
<feFlood flood-opacity="0" result="BackgroundImageFix"/>
<feBlend mode="normal" in="SourceGraphic" in2="BackgroundImageFix" result="shape"/>
<feGaussianBlur stdDeviation="20" result="effect1_foregroundBlur_217_3224"/>
</filter>
<filter id="filter4_f_217_3224" x="11.8223" y="-8.72656" width="81.9551" height="88.3828" filterUnits="userSpaceOnUse" color-interpolation-filters="sRGB">
<feFlood flood-opacity="0" result="BackgroundImageFix"/>
<feBlend mode="normal" in="SourceGraphic" in2="BackgroundImageFix" result="shape"/>
<feGaussianBlur stdDeviation="20" result="effect1_foregroundBlur_217_3224"/>
</filter>
<filter id="filter5_f_217_3224" x="-94.4746" y="-114.006" width="281.281" height="301.926" filterUnits="userSpaceOnUse" color-interpolation-filters="sRGB">
<feFlood flood-opacity="0" result="BackgroundImageFix"/>
<feBlend mode="normal" in="SourceGraphic" in2="BackgroundImageFix" result="shape"/>
<feGaussianBlur stdDeviation="65" result="effect1_foregroundBlur_217_3224"/>
</filter>
<filter id="filter6_f_217_3224" x="-131.846" y="-164.006" width="381.281" height="401.926" filterUnits="userSpaceOnUse" color-interpolation-filters="sRGB">
<feFlood flood-opacity="0" result="BackgroundImageFix"/>
<feBlend mode="normal" in="SourceGraphic" in2="BackgroundImageFix" result="shape"/>
<feGaussianBlur stdDeviation="90" result="effect1_foregroundBlur_217_3224"/>
</filter>
<filter id="filter7_f_217_3224" x="-51.916" y="-83.0449" width="209.785" height="241.926" filterUnits="userSpaceOnUse" color-interpolation-filters="sRGB">
<feFlood flood-opacity="0" result="BackgroundImageFix"/>
<feBlend mode="normal" in="SourceGraphic" in2="BackgroundImageFix" result="shape"/>
<feGaussianBlur stdDeviation="50" result="effect1_foregroundBlur_217_3224"/>
</filter>
<filter id="filter8_f_217_3224" x="12.0098" y="-13.2402" width="85.0664" height="101.709" filterUnits="userSpaceOnUse" color-interpolation-filters="sRGB">
<feFlood flood-opacity="0" result="BackgroundImageFix"/>
<feBlend mode="normal" in="SourceGraphic" in2="BackgroundImageFix" result="shape"/>
<feGaussianBlur stdDeviation="20" result="effect1_foregroundBlur_217_3224"/>
</filter>
<filter id="filter9_f_217_3224" x="14.5449" y="-7.15039" width="82.3672" height="90.1387" filterUnits="userSpaceOnUse" color-interpolation-filters="sRGB">
<feFlood flood-opacity="0" result="BackgroundImageFix"/>
<feBlend mode="normal" in="SourceGraphic" in2="BackgroundImageFix" result="shape"/>
<feGaussianBlur stdDeviation="20" result="effect1_foregroundBlur_217_3224"/>
</filter>
<filter id="filter10_f_217_3224" x="-118.645" y="-119.416" width="296.238" height="311.996" filterUnits="userSpaceOnUse" color-interpolation-filters="sRGB">
<feFlood flood-opacity="0" result="BackgroundImageFix"/>
<feBlend mode="normal" in="SourceGraphic" in2="BackgroundImageFix" result="shape"/>
<feGaussianBlur stdDeviation="70" result="effect1_foregroundBlur_217_3224"/>
</filter>
<filter id="filter11_f_217_3224" x="-168.084" y="-159.416" width="376.238" height="391.996" filterUnits="userSpaceOnUse" color-interpolation-filters="sRGB">
<feFlood flood-opacity="0" result="BackgroundImageFix"/>
<feBlend mode="normal" in="SourceGraphic" in2="BackgroundImageFix" result="shape"/>
<feGaussianBlur stdDeviation="90" result="effect1_foregroundBlur_217_3224"/>
</filter>
<filter id="filter12_f_217_3224" x="-79.3223" y="-79.416" width="207.475" height="232.023" filterUnits="userSpaceOnUse" color-interpolation-filters="sRGB">
<feFlood flood-opacity="0" result="BackgroundImageFix"/>
<feBlend mode="normal" in="SourceGraphic" in2="BackgroundImageFix" result="shape"/>
<feGaussianBlur stdDeviation="50" result="effect1_foregroundBlur_217_3224"/>
</filter>
<filter id="filter13_f_217_3224" x="-19.3223" y="-11.5254" width="83.8184" height="96.3555" filterUnits="userSpaceOnUse" color-interpolation-filters="sRGB">
<feFlood flood-opacity="0" result="BackgroundImageFix"/>
<feBlend mode="normal" in="SourceGraphic" in2="BackgroundImageFix" result="shape"/>
<feGaussianBlur stdDeviation="20" result="effect1_foregroundBlur_217_3224"/>
</filter>
<filter id="filter14_f_217_3224" x="-18.2285" y="-6.12305" width="81.4336" height="86.1406" filterUnits="userSpaceOnUse" color-interpolation-filters="sRGB">
<feFlood flood-opacity="0" result="BackgroundImageFix"/>
<feBlend mode="normal" in="SourceGraphic" in2="BackgroundImageFix" result="shape"/>
<feGaussianBlur stdDeviation="20" result="effect1_foregroundBlur_217_3224"/>
</filter>
<filter id="filter15_f_217_3224" x="-128.133" y="-123.043" width="301.258" height="321.891" filterUnits="userSpaceOnUse" color-interpolation-filters="sRGB">
<feFlood flood-opacity="0" result="BackgroundImageFix"/>
<feBlend mode="normal" in="SourceGraphic" in2="BackgroundImageFix" result="shape"/>
<feGaussianBlur stdDeviation="70" result="effect1_foregroundBlur_217_3224"/>
</filter>
<filter id="filter16_f_217_3224" x="-180.49" y="-163.043" width="381.258" height="401.891" filterUnits="userSpaceOnUse" color-interpolation-filters="sRGB">
<feFlood flood-opacity="0" result="BackgroundImageFix"/>
<feBlend mode="normal" in="SourceGraphic" in2="BackgroundImageFix" result="shape"/>
<feGaussianBlur stdDeviation="90" result="effect1_foregroundBlur_217_3224"/>
</filter>
<filter id="filter17_f_217_3224" x="-89.0176" y="-83.043" width="209.785" height="241.926" filterUnits="userSpaceOnUse" color-interpolation-filters="sRGB">
<feFlood flood-opacity="0" result="BackgroundImageFix"/>
<feBlend mode="normal" in="SourceGraphic" in2="BackgroundImageFix" result="shape"/>
<feGaussianBlur stdDeviation="50" result="effect1_foregroundBlur_217_3224"/>
</filter>
<filter id="filter18_f_217_3224" x="-29.0176" y="-12.7129" width="84.9961" height="101.412" filterUnits="userSpaceOnUse" color-interpolation-filters="sRGB">
<feFlood flood-opacity="0" result="BackgroundImageFix"/>
<feBlend mode="normal" in="SourceGraphic" in2="BackgroundImageFix" result="shape"/>
<feGaussianBlur stdDeviation="20" result="effect1_foregroundBlur_217_3224"/>
</filter>
<filter id="filter19_f_217_3224" x="-27.584" y="-5.63867" width="81.875" height="88.0391" filterUnits="userSpaceOnUse" color-interpolation-filters="sRGB">
<feFlood flood-opacity="0" result="BackgroundImageFix"/>
<feBlend mode="normal" in="SourceGraphic" in2="BackgroundImageFix" result="shape"/>
<feGaussianBlur stdDeviation="20" result="effect1_foregroundBlur_217_3224"/>
</filter>
<linearGradient id="paint0_linear_217_3224" x1="-12.7711" y1="-5.11799" x2="83.1186" y2="0.0121504" gradientUnits="userSpaceOnUse">
<stop stop-color="#3B016C"/>
<stop offset="1" stop-color="#130221"/>
</linearGradient>
<radialGradient id="paint1_radial_217_3224" cx="0" cy="0" r="1" gradientUnits="userSpaceOnUse" gradientTransform="translate(44.8984 34.6719) rotate(90) scale(17.332 8.79876)">
<stop stop-color="#47BDFF"/>
<stop offset="1" stop-color="#D6F0FF" stop-opacity="0.29"/>
</radialGradient>
<radialGradient id="paint2_radial_217_3224" cx="0" cy="0" r="1" gradientUnits="userSpaceOnUse" gradientTransform="translate(55.3398 34.6719) rotate(90) scale(17.332 8.79876)">
<stop stop-color="#47BDFF"/>
<stop offset="1" stop-color="#D6F0FF" stop-opacity="0.29"/>
</radialGradient>
<radialGradient id="paint3_radial_217_3224" cx="0" cy="0" r="1" gradientUnits="userSpaceOnUse" gradientTransform="translate(50.5265 35.4668) rotate(90) scale(17.332 4.04602)">
<stop stop-color="#47BDFF"/>
<stop offset="1" stop-color="#D6F0FF" stop-opacity="0.29"/>
</radialGradient>
<radialGradient id="paint4_radial_217_3224" cx="0" cy="0" r="1" gradientUnits="userSpaceOnUse" gradientTransform="translate(51.8213 35.213) rotate(90) scale(8.97474 2.09471)">
<stop stop-color="#47BDFF"/>
<stop offset="1" stop-color="#D6F0FF" stop-opacity="0.29"/>
</radialGradient>
<radialGradient id="paint5_radial_217_3224" cx="0" cy="0" r="1" gradientUnits="userSpaceOnUse" gradientTransform="translate(52.8003 35.4646) rotate(90) scale(4.19113 0.978019)">
<stop stop-color="#47BDFF"/>
<stop offset="1" stop-color="#D6F0FF" stop-opacity="0.29"/>
</radialGradient>
<radialGradient id="paint6_radial_217_3224" cx="0" cy="0" r="1" gradientUnits="userSpaceOnUse" gradientTransform="translate(46.166 36.9569) rotate(90) scale(20.9627 10.6406)">
<stop stop-color="#47BDFF"/>
<stop offset="1" stop-color="#D6F0FF" stop-opacity="0.29"/>
</radialGradient>
<radialGradient id="paint7_radial_217_3224" cx="0" cy="0" r="1" gradientUnits="userSpaceOnUse" gradientTransform="translate(58.7949 36.9569) rotate(90) scale(20.9627 10.6406)">
<stop stop-color="#47BDFF"/>
<stop offset="1" stop-color="#D6F0FF" stop-opacity="0.29"/>
</radialGradient>
<radialGradient id="paint8_radial_217_3224" cx="0" cy="0" r="1" gradientUnits="userSpaceOnUse" gradientTransform="translate(52.977 37.9178) rotate(90) scale(20.9627 4.89298)">
<stop stop-color="#47BDFF"/>
<stop offset="1" stop-color="#D6F0FF" stop-opacity="0.29"/>
</radialGradient>
<radialGradient id="paint9_radial_217_3224" cx="0" cy="0" r="1" gradientUnits="userSpaceOnUse" gradientTransform="translate(54.5429 37.614) rotate(90) scale(10.8542 2.53316)">
<stop stop-color="#47BDFF"/>
<stop offset="1" stop-color="#D6F0FF" stop-opacity="0.29"/>
</radialGradient>
<radialGradient id="paint10_radial_217_3224" cx="0" cy="0" r="1" gradientUnits="userSpaceOnUse" gradientTransform="translate(55.7285 37.9187) rotate(90) scale(5.06911 1.18357)">
<stop stop-color="#47BDFF"/>
<stop offset="1" stop-color="#D6F0FF" stop-opacity="0.29"/>
</radialGradient>
<radialGradient id="paint11_radial_217_3224" cx="0" cy="0" r="1" gradientUnits="userSpaceOnUse" gradientTransform="translate(29.4749 36.5818) rotate(90) scale(15.9978 8.11941)">
<stop stop-color="#FFA0A8"/>
<stop offset="1" stop-color="#FFD4D7" stop-opacity="0.2"/>
</radialGradient>
<radialGradient id="paint12_radial_217_3224" cx="0" cy="0" r="1" gradientUnits="userSpaceOnUse" gradientTransform="translate(20.0354 36.5818) rotate(90) scale(15.9978 8.11941)">
<stop stop-color="#FFA0A8"/>
<stop offset="1" stop-color="#FFD4D7" stop-opacity="0.2"/>
</radialGradient>
<radialGradient id="paint13_radial_217_3224" cx="0" cy="0" r="1" gradientUnits="userSpaceOnUse" gradientTransform="translate(24.4153 36.5955) rotate(90) scale(16.0115 3.73759)">
<stop stop-color="#FFA0A8"/>
<stop offset="1" stop-color="#FFD4D7" stop-opacity="0.2"/>
</radialGradient>
<radialGradient id="paint14_radial_217_3224" cx="0" cy="0" r="1" gradientUnits="userSpaceOnUse" gradientTransform="translate(22.5867 36.6525) rotate(90) scale(8.17793 1.90896)">
<stop stop-color="#FF4D5C"/>
<stop offset="1" stop-color="#FFD4D7" stop-opacity="0.1"/>
</radialGradient>
<radialGradient id="paint15_radial_217_3224" cx="0" cy="0" r="1" gradientUnits="userSpaceOnUse" gradientTransform="translate(22.4883 36.9473) rotate(90) scale(3.07034 0.716781)">
<stop stop-color="#FF4D5C"/>
<stop offset="1" stop-color="#FFD4D7" stop-opacity="0.1"/>
</radialGradient>
<radialGradient id="paint16_radial_217_3224" cx="0" cy="0" r="1" gradientUnits="userSpaceOnUse" gradientTransform="translate(22.4964 37.9019) rotate(90) scale(20.9448 10.6292)">
<stop stop-color="#FFA0A8"/>
<stop offset="1" stop-color="#FFD4D7" stop-opacity="0.2"/>
</radialGradient>
<radialGradient id="paint17_radial_217_3224" cx="0" cy="0" r="1" gradientUnits="userSpaceOnUse" gradientTransform="translate(10.139 37.9019) rotate(90) scale(20.9448 10.6292)">
<stop stop-color="#FFA0A8"/>
<stop offset="1" stop-color="#FFD4D7" stop-opacity="0.2"/>
</radialGradient>
<radialGradient id="paint18_radial_217_3224" cx="0" cy="0" r="1" gradientUnits="userSpaceOnUse" gradientTransform="translate(15.8754 37.9197) rotate(90) scale(20.9627 4.89298)">
<stop stop-color="#FFA0A8"/>
<stop offset="1" stop-color="#FFD4D7" stop-opacity="0.2"/>
</radialGradient>
<radialGradient id="paint19_radial_217_3224" cx="0" cy="0" r="1" gradientUnits="userSpaceOnUse" gradientTransform="translate(13.4809 37.9934) rotate(90) scale(10.7063 2.4985)">
<stop stop-color="#FF4D5C"/>
<stop offset="1" stop-color="#FFD4D7" stop-opacity="0.1"/>
</radialGradient>
<radialGradient id="paint20_radial_217_3224" cx="0" cy="0" r="1" gradientUnits="userSpaceOnUse" gradientTransform="translate(13.3539 38.3811) rotate(90) scale(4.0198 0.937931)">
<stop stop-color="#FF4D5C"/>
<stop offset="1" stop-color="#FFD4D7" stop-opacity="0.1"/>
</radialGradient>
<clipPath id="clip0_217_3224">
<rect width="70" height="70" rx="35" fill="white"/>
</clipPath>
</defs>
</svg>
